G75*
%MOIN*%
%OFA0B0*%
%FSLAX24Y24*%
%IPPOS*%
%LPD*%
%AMOC8*
5,1,8,0,0,1.08239X$1,22.5*
%
%ADD10C,0.0100*%
%ADD11C,0.0120*%
%ADD12C,0.0160*%
%ADD13C,0.0070*%
%ADD14C,0.0080*%
%ADD15C,0.0060*%
%ADD16C,0.0090*%
%ADD17C,0.0050*%
%ADD18C,0.0040*%
%ADD19R,0.0340X0.0240*%
%ADD20R,0.0240X0.0340*%
%ADD21R,0.0900X0.0250*%
D10*
X000150Y000700D02*
X040050Y000700D01*
X040050Y021550D01*
X000150Y021550D01*
X000150Y000700D01*
X016200Y003000D02*
X016200Y003560D01*
X016480Y003560D01*
X016574Y003467D01*
X016574Y003280D01*
X016480Y003187D01*
X016200Y003187D01*
X016808Y003093D02*
X016901Y003000D01*
X017088Y003000D01*
X017181Y003093D01*
X017181Y003467D01*
X017088Y003560D01*
X016901Y003560D01*
X016808Y003467D01*
X016808Y003093D01*
X017415Y003000D02*
X017415Y003560D01*
X017789Y003560D02*
X017789Y003000D01*
X017602Y003187D01*
X017415Y003000D01*
X018023Y003000D02*
X018397Y003000D01*
X018631Y003000D02*
X018631Y003560D01*
X018911Y003560D01*
X019005Y003467D01*
X019005Y003280D01*
X018911Y003187D01*
X018631Y003187D01*
X018818Y003187D02*
X019005Y003000D01*
X018397Y003560D02*
X018023Y003560D01*
X018023Y003000D01*
X018023Y003280D02*
X018210Y003280D01*
X021850Y003500D02*
X021850Y003874D01*
X022037Y004060D01*
X022224Y003874D01*
X022224Y003500D01*
X022458Y003500D02*
X022458Y004060D01*
X022831Y003500D01*
X022831Y004060D01*
X023065Y003874D02*
X023252Y004060D01*
X023439Y003874D01*
X023439Y003500D01*
X023673Y003500D02*
X024047Y003500D01*
X024281Y003593D02*
X024374Y003500D01*
X024561Y003500D01*
X024655Y003593D01*
X024655Y003967D01*
X024561Y004060D01*
X024374Y004060D01*
X024281Y003967D01*
X024281Y003593D01*
X024889Y003593D02*
X024982Y003500D01*
X025169Y003500D01*
X025262Y003593D01*
X025262Y003780D01*
X025075Y003780D01*
X024889Y003967D02*
X024889Y003593D01*
X024889Y003967D02*
X024982Y004060D01*
X025169Y004060D01*
X025262Y003967D01*
X023673Y004060D02*
X023673Y003500D01*
X023439Y003780D02*
X023065Y003780D01*
X023065Y003874D02*
X023065Y003500D01*
X022224Y003780D02*
X021850Y003780D01*
X027319Y003500D02*
X027506Y003500D01*
X027413Y003500D02*
X027413Y004060D01*
X027506Y004060D02*
X027319Y004060D01*
X027725Y004060D02*
X028098Y003500D01*
X028098Y004060D01*
X027725Y004060D02*
X027725Y003500D01*
X034690Y009850D02*
X034690Y010130D01*
X034783Y010224D01*
X035157Y010224D01*
X035250Y010130D01*
X035250Y009850D01*
X034690Y009850D01*
X034690Y010458D02*
X034690Y010645D01*
X034690Y010551D02*
X035250Y010551D01*
X035250Y010458D02*
X035250Y010645D01*
X035157Y010863D02*
X034783Y010863D01*
X034690Y010956D01*
X034690Y011143D01*
X034783Y011237D01*
X034970Y011237D02*
X034970Y011050D01*
X034970Y011237D02*
X035157Y011237D01*
X035250Y011143D01*
X035250Y010956D01*
X035157Y010863D01*
X035250Y011471D02*
X035250Y011657D01*
X035250Y011564D02*
X034690Y011564D01*
X034690Y011471D02*
X034690Y011657D01*
X034690Y011876D02*
X034690Y012249D01*
X034690Y012063D02*
X035250Y012063D01*
X035250Y012483D02*
X034876Y012483D01*
X034690Y012670D01*
X034876Y012857D01*
X035250Y012857D01*
X035250Y013091D02*
X034690Y013091D01*
X034970Y012857D02*
X034970Y012483D01*
X035250Y013091D02*
X035250Y013465D01*
X017939Y018000D02*
X017939Y018560D01*
X017752Y018374D01*
X017565Y018560D01*
X017565Y018000D01*
X017331Y018000D02*
X017331Y018560D01*
X016958Y018560D02*
X016958Y018000D01*
X017145Y018187D01*
X017331Y018000D01*
X016724Y018280D02*
X016724Y018467D01*
X016630Y018560D01*
X016350Y018560D01*
X016350Y018000D01*
X016350Y018187D02*
X016630Y018187D01*
X016724Y018280D01*
D11*
X016050Y018300D02*
X011950Y018300D01*
X011600Y018650D01*
X008729Y019650D02*
X008731Y019666D01*
X008737Y019682D01*
X008746Y019696D01*
X008758Y019707D01*
X008772Y019715D01*
X008788Y019720D01*
X008804Y019721D01*
X008820Y019718D01*
X008835Y019711D01*
X008849Y019702D01*
X008859Y019689D01*
X008867Y019674D01*
X008871Y019658D01*
X008871Y019642D01*
X008867Y019626D01*
X008859Y019611D01*
X008849Y019598D01*
X008836Y019589D01*
X008820Y019582D01*
X008804Y019579D01*
X008788Y019580D01*
X008772Y019585D01*
X008758Y019593D01*
X008746Y019604D01*
X008737Y019618D01*
X008731Y019634D01*
X008729Y019650D01*
X018250Y018300D02*
X022650Y018300D01*
X023050Y018700D01*
X024550Y016700D02*
X025050Y016700D01*
X022330Y011600D02*
X022330Y011350D01*
X022330Y011100D01*
X022080Y011100D02*
X022080Y011350D01*
X022080Y011600D01*
X015930Y004400D02*
X015930Y004150D01*
X015930Y003900D01*
X015680Y003900D02*
X015680Y004150D01*
X015680Y004400D01*
X020100Y003350D02*
X020500Y003750D01*
X035000Y005000D02*
X035400Y004600D01*
X035000Y005000D02*
X035000Y009600D01*
X035000Y013750D02*
X035000Y019150D01*
X035400Y019550D01*
X037050Y021050D02*
X037050Y021300D01*
X038050Y021300D01*
X038050Y021050D01*
X036500Y003750D02*
X035850Y003400D01*
X037050Y002800D02*
X037050Y002600D01*
X038050Y002600D01*
X038050Y002800D01*
X005880Y011000D02*
X005880Y011250D01*
X005880Y011500D01*
X005630Y011500D02*
X005630Y011250D01*
X005630Y011000D01*
D12*
X023800Y018550D02*
X024050Y018800D01*
X024300Y018550D01*
X024050Y018550D01*
X024050Y018800D01*
X024050Y018550D02*
X023800Y018550D01*
X024050Y019050D01*
X024300Y018550D01*
X024800Y019050D02*
X025050Y018800D01*
X025050Y019050D01*
X025300Y019050D01*
X025050Y018800D01*
X025050Y018550D02*
X024800Y019050D01*
X025050Y019050D01*
X025300Y019050D02*
X025050Y018550D01*
D13*
X025265Y018128D02*
X024775Y017801D01*
X024856Y017612D02*
X025020Y017612D01*
X025102Y017530D01*
X025102Y017285D01*
X025265Y017285D02*
X024775Y017285D01*
X024775Y017530D01*
X024856Y017612D01*
X025102Y017448D02*
X025265Y017612D01*
X025265Y017801D02*
X024775Y018128D01*
X024265Y018128D02*
X023775Y017801D01*
X023775Y017612D02*
X023775Y017285D01*
X023775Y017448D02*
X024265Y017448D01*
X024265Y017801D02*
X023775Y018128D01*
X023938Y019335D02*
X023775Y019498D01*
X024265Y019498D01*
X024265Y019335D02*
X024265Y019662D01*
X024775Y019580D02*
X024775Y019417D01*
X024856Y019335D01*
X025183Y019335D01*
X024856Y019662D01*
X025183Y019662D01*
X025265Y019580D01*
X025265Y019417D01*
X025183Y019335D01*
X024856Y019662D02*
X024775Y019580D01*
X023265Y019662D02*
X023265Y019335D01*
X022938Y019662D01*
X022856Y019662D01*
X022775Y019580D01*
X022775Y019417D01*
X022856Y019335D01*
X022265Y019417D02*
X022265Y019580D01*
X022183Y019662D01*
X022102Y019662D01*
X022020Y019580D01*
X022020Y019498D01*
X022020Y019580D02*
X021938Y019662D01*
X021856Y019662D01*
X021775Y019580D01*
X021775Y019417D01*
X021856Y019335D01*
X022183Y019335D02*
X022265Y019417D01*
X021265Y019580D02*
X020775Y019580D01*
X021020Y019335D01*
X021020Y019662D01*
X020265Y019580D02*
X020265Y019417D01*
X020183Y019335D01*
X020020Y019335D02*
X019938Y019498D01*
X019938Y019580D01*
X020020Y019662D01*
X020183Y019662D01*
X020265Y019580D01*
X020020Y019335D02*
X019775Y019335D01*
X019775Y019662D01*
X019265Y019580D02*
X019265Y019417D01*
X019183Y019335D01*
X019020Y019335D01*
X019020Y019580D01*
X019102Y019662D01*
X019183Y019662D01*
X019265Y019580D01*
X019020Y019335D02*
X018856Y019498D01*
X018775Y019662D01*
X018265Y019335D02*
X018183Y019335D01*
X017856Y019662D01*
X017775Y019662D01*
X017775Y019335D01*
X016765Y019417D02*
X016683Y019335D01*
X016602Y019335D01*
X016520Y019417D01*
X016520Y019580D01*
X016602Y019662D01*
X016683Y019662D01*
X016765Y019580D01*
X016765Y019417D01*
X016520Y019417D02*
X016438Y019335D01*
X016356Y019335D01*
X016275Y019417D01*
X016275Y019580D01*
X016356Y019662D01*
X016438Y019662D01*
X016520Y019580D01*
X015765Y019580D02*
X015765Y019417D01*
X015683Y019335D01*
X015520Y019417D02*
X015520Y019662D01*
X015683Y019662D02*
X015356Y019662D01*
X015275Y019580D01*
X015275Y019417D01*
X015356Y019335D01*
X015438Y019335D01*
X015520Y019417D01*
X015765Y019580D02*
X015683Y019662D01*
X014765Y019596D02*
X014765Y019432D01*
X014683Y019351D01*
X014356Y019678D01*
X014683Y019678D01*
X014765Y019596D01*
X014683Y019351D02*
X014356Y019351D01*
X014275Y019432D01*
X014275Y019596D01*
X014356Y019678D01*
X013765Y019678D02*
X013765Y019351D01*
X013765Y019514D02*
X013275Y019514D01*
X013438Y019351D01*
X013765Y019162D02*
X013765Y018835D01*
X013765Y018998D02*
X013275Y018998D01*
X013438Y018835D01*
X012765Y018835D02*
X012765Y019162D01*
X012765Y018998D02*
X012275Y018998D01*
X012438Y018835D01*
X011765Y018835D02*
X011765Y019162D01*
X011765Y018998D02*
X011275Y018998D01*
X011438Y018835D01*
X011356Y019351D02*
X011275Y019432D01*
X011275Y019596D01*
X011356Y019678D01*
X011438Y019678D01*
X011520Y019596D01*
X011602Y019678D01*
X011683Y019678D01*
X011765Y019596D01*
X011765Y019432D01*
X011683Y019351D01*
X011520Y019514D02*
X011520Y019596D01*
X010808Y019521D02*
X010808Y019766D01*
X010726Y019848D01*
X010399Y019848D01*
X010317Y019766D01*
X010317Y019521D01*
X010808Y019521D01*
X010808Y019332D02*
X010317Y019332D01*
X010317Y019005D02*
X010808Y019332D01*
X010808Y019005D02*
X010317Y019005D01*
X010399Y018817D02*
X010317Y018735D01*
X010317Y018572D01*
X010399Y018490D01*
X010726Y018490D01*
X010808Y018572D01*
X010808Y018735D01*
X010726Y018817D01*
X010562Y018817D01*
X010562Y018653D01*
X009753Y018495D02*
X009263Y018495D01*
X009263Y018741D01*
X009345Y018822D01*
X009508Y018822D01*
X009590Y018741D01*
X009590Y018495D01*
X009590Y018659D02*
X009753Y018822D01*
X009753Y019011D02*
X009753Y019338D01*
X009753Y019527D02*
X009263Y019527D01*
X009263Y019854D01*
X009508Y019690D02*
X009508Y019527D01*
X009263Y019338D02*
X009263Y019011D01*
X009753Y019011D01*
X009508Y019011D02*
X009508Y019175D01*
X009508Y018307D02*
X009508Y017980D01*
X009426Y017980D02*
X009263Y018143D01*
X009426Y018307D01*
X009753Y018307D01*
X009753Y017980D02*
X009426Y017980D01*
X012275Y019432D02*
X012275Y019596D01*
X012356Y019678D01*
X012438Y019678D01*
X012765Y019351D01*
X012765Y019678D01*
X012356Y019351D02*
X012275Y019432D01*
X014275Y018998D02*
X014438Y018835D01*
X014275Y018998D02*
X014765Y018998D01*
X014765Y018835D02*
X014765Y019162D01*
X017096Y015665D02*
X017096Y015175D01*
X016851Y015175D01*
X016769Y015257D01*
X016769Y015420D01*
X016851Y015502D01*
X017096Y015502D01*
X016581Y015420D02*
X016581Y015175D01*
X016581Y015420D02*
X016499Y015502D01*
X016254Y015502D01*
X016254Y015175D01*
X016065Y015175D02*
X015820Y015175D01*
X015738Y015257D01*
X015738Y015420D01*
X015820Y015502D01*
X016065Y015502D01*
X016065Y015093D01*
X015983Y015012D01*
X015902Y015012D01*
X020319Y010452D02*
X020483Y010615D01*
X020483Y010125D01*
X020646Y010125D02*
X020319Y010125D01*
X024760Y013220D02*
X024923Y013220D01*
X024842Y013220D02*
X024842Y013711D01*
X024923Y013711D02*
X024760Y013711D01*
X025104Y013629D02*
X025104Y013302D01*
X025185Y013220D01*
X025349Y013220D01*
X025431Y013302D01*
X025619Y013302D02*
X025701Y013220D01*
X025864Y013220D01*
X025946Y013302D01*
X025946Y013384D01*
X025864Y013466D01*
X025701Y013466D01*
X025619Y013547D01*
X025619Y013629D01*
X025701Y013711D01*
X025864Y013711D01*
X025946Y013629D01*
X026135Y013711D02*
X026380Y013711D01*
X026462Y013629D01*
X026462Y013466D01*
X026380Y013384D01*
X026135Y013384D01*
X026135Y013220D02*
X026135Y013711D01*
X025431Y013629D02*
X025349Y013711D01*
X025185Y013711D01*
X025104Y013629D01*
X026775Y017285D02*
X026775Y017612D01*
X026775Y017448D02*
X027265Y017448D01*
X027265Y017801D02*
X026775Y018128D01*
X026856Y018316D02*
X026775Y018398D01*
X026775Y018561D01*
X026856Y018643D01*
X026938Y018643D01*
X027020Y018561D01*
X027102Y018643D01*
X027183Y018643D01*
X027265Y018561D01*
X027265Y018398D01*
X027183Y018316D01*
X027265Y018128D02*
X026775Y017801D01*
X027775Y017801D02*
X028265Y018128D01*
X028183Y018316D02*
X028265Y018398D01*
X028265Y018561D01*
X028183Y018643D01*
X028102Y018643D01*
X028020Y018561D01*
X028020Y018480D01*
X028020Y018561D02*
X027938Y018643D01*
X027856Y018643D01*
X027775Y018561D01*
X027775Y018398D01*
X027856Y018316D01*
X027775Y018128D02*
X028265Y017801D01*
X028265Y017612D02*
X028102Y017448D01*
X028102Y017530D02*
X028102Y017285D01*
X028265Y017285D02*
X027775Y017285D01*
X027775Y017530D01*
X027856Y017612D01*
X028020Y017612D01*
X028102Y017530D01*
X028775Y017448D02*
X029265Y017448D01*
X029265Y017801D02*
X028775Y018128D01*
X028856Y018316D02*
X028775Y018398D01*
X028775Y018561D01*
X028856Y018643D01*
X028938Y018643D01*
X029265Y018316D01*
X029265Y018643D01*
X029775Y018561D02*
X029775Y018398D01*
X029856Y018316D01*
X029775Y018128D02*
X030265Y017801D01*
X030265Y017612D02*
X030102Y017448D01*
X030102Y017530D02*
X030102Y017285D01*
X030265Y017285D02*
X029775Y017285D01*
X029775Y017530D01*
X029856Y017612D01*
X030020Y017612D01*
X030102Y017530D01*
X029775Y017801D02*
X030265Y018128D01*
X030265Y018316D02*
X029938Y018643D01*
X029856Y018643D01*
X029775Y018561D01*
X029938Y018985D02*
X029775Y019148D01*
X030265Y019148D01*
X030265Y018985D02*
X030265Y019312D01*
X030265Y019501D02*
X030183Y019501D01*
X029856Y019828D01*
X029775Y019828D01*
X029775Y019501D01*
X029265Y019582D02*
X029265Y019746D01*
X029183Y019828D01*
X029102Y019828D01*
X029020Y019746D01*
X029020Y019501D01*
X029183Y019501D01*
X029265Y019582D01*
X029020Y019501D02*
X028856Y019664D01*
X028775Y019828D01*
X028265Y019746D02*
X028265Y019582D01*
X028183Y019501D01*
X028020Y019501D02*
X027938Y019664D01*
X027938Y019746D01*
X028020Y019828D01*
X028183Y019828D01*
X028265Y019746D01*
X028020Y019501D02*
X027775Y019501D01*
X027775Y019828D01*
X027265Y019746D02*
X026775Y019746D01*
X027020Y019501D01*
X027020Y019828D01*
X027265Y019312D02*
X027265Y018985D01*
X027265Y019148D02*
X026775Y019148D01*
X026938Y018985D01*
X027020Y018561D02*
X027020Y018480D01*
X027775Y019148D02*
X028265Y019148D01*
X028265Y018985D02*
X028265Y019312D01*
X027938Y018985D02*
X027775Y019148D01*
X028775Y019148D02*
X029265Y019148D01*
X029265Y018985D02*
X029265Y019312D01*
X028938Y018985D02*
X028775Y019148D01*
X029265Y018128D02*
X028775Y017801D01*
X028775Y017612D02*
X028775Y017285D01*
X030265Y018316D02*
X030265Y018643D01*
X030775Y018480D02*
X031265Y018480D01*
X031265Y018643D02*
X031265Y018316D01*
X031265Y018128D02*
X030775Y017801D01*
X030775Y017612D02*
X030775Y017285D01*
X030775Y017448D02*
X031265Y017448D01*
X031265Y017801D02*
X030775Y018128D01*
X030938Y018316D02*
X030775Y018480D01*
X031775Y018480D02*
X032265Y018480D01*
X032265Y018643D02*
X032265Y018316D01*
X032265Y018128D02*
X031775Y017801D01*
X031856Y017612D02*
X031775Y017530D01*
X031775Y017285D01*
X032265Y017285D01*
X032102Y017285D02*
X032102Y017530D01*
X032020Y017612D01*
X031856Y017612D01*
X032102Y017448D02*
X032265Y017612D01*
X032265Y017801D02*
X031775Y018128D01*
X031938Y018316D02*
X031775Y018480D01*
X031938Y018985D02*
X031775Y019148D01*
X032265Y019148D01*
X032265Y018985D02*
X032265Y019312D01*
X032183Y019501D02*
X032265Y019582D01*
X032265Y019746D01*
X032183Y019828D01*
X031856Y019828D01*
X031775Y019746D01*
X031775Y019582D01*
X031856Y019501D01*
X031938Y019501D01*
X032020Y019582D01*
X032020Y019828D01*
X032775Y019746D02*
X032775Y019582D01*
X032856Y019501D01*
X033183Y019501D01*
X032856Y019828D01*
X033183Y019828D01*
X033265Y019746D01*
X033265Y019582D01*
X033183Y019501D01*
X033265Y019312D02*
X033265Y018985D01*
X032938Y019312D01*
X032856Y019312D01*
X032775Y019230D01*
X032775Y019067D01*
X032856Y018985D01*
X032938Y018643D02*
X033265Y018643D01*
X033020Y018643D02*
X033020Y018316D01*
X032938Y018316D02*
X032775Y018480D01*
X032938Y018643D01*
X032938Y018316D02*
X033265Y018316D01*
X033183Y018128D02*
X032856Y018128D01*
X032775Y018046D01*
X032775Y017801D01*
X033265Y017801D01*
X033265Y018046D01*
X033183Y018128D01*
X033775Y018046D02*
X033775Y017882D01*
X033856Y017801D01*
X034183Y017801D01*
X034265Y017882D01*
X034265Y018046D01*
X034183Y018128D01*
X034265Y018316D02*
X033775Y018316D01*
X033856Y018128D02*
X033775Y018046D01*
X033856Y017612D02*
X033775Y017530D01*
X033775Y017367D01*
X033856Y017285D01*
X033938Y017285D01*
X034020Y017367D01*
X034020Y017530D01*
X034102Y017612D01*
X034183Y017612D01*
X034265Y017530D01*
X034265Y017367D01*
X034183Y017285D01*
X033265Y017367D02*
X033183Y017285D01*
X033265Y017367D02*
X033265Y017530D01*
X033183Y017612D01*
X033102Y017612D01*
X033020Y017530D01*
X033020Y017367D01*
X032938Y017285D01*
X032856Y017285D01*
X032775Y017367D01*
X032775Y017530D01*
X032856Y017612D01*
X034265Y018316D02*
X034265Y018643D01*
X034265Y018985D02*
X033938Y019312D01*
X033856Y019312D01*
X033775Y019230D01*
X033775Y019067D01*
X033856Y018985D01*
X034265Y018985D02*
X034265Y019312D01*
X034265Y019501D02*
X034265Y019828D01*
X034265Y019664D02*
X033775Y019664D01*
X033938Y019501D01*
X032856Y019828D02*
X032775Y019746D01*
X031265Y019746D02*
X031265Y019582D01*
X031183Y019501D01*
X031102Y019501D01*
X031020Y019582D01*
X031020Y019746D01*
X031102Y019828D01*
X031183Y019828D01*
X031265Y019746D01*
X031020Y019746D02*
X030938Y019828D01*
X030856Y019828D01*
X030775Y019746D01*
X030775Y019582D01*
X030856Y019501D01*
X030938Y019501D01*
X031020Y019582D01*
X031265Y019312D02*
X031265Y018985D01*
X031265Y019148D02*
X030775Y019148D01*
X030938Y018985D01*
X035585Y018744D02*
X035667Y018825D01*
X035830Y018825D01*
X035912Y018744D01*
X035912Y018662D01*
X035585Y018335D01*
X035912Y018335D01*
X036101Y018580D02*
X036428Y018580D01*
X036346Y018335D02*
X036346Y018825D01*
X036101Y018580D01*
X036101Y019335D02*
X036428Y019662D01*
X036428Y019744D01*
X036346Y019825D01*
X036182Y019825D01*
X036101Y019744D01*
X035912Y019744D02*
X035830Y019825D01*
X035667Y019825D01*
X035585Y019744D01*
X035912Y019744D02*
X035912Y019662D01*
X035585Y019335D01*
X035912Y019335D01*
X036101Y019335D02*
X036428Y019335D01*
X036428Y017825D02*
X036264Y017744D01*
X036101Y017580D01*
X036346Y017580D01*
X036428Y017498D01*
X036428Y017417D01*
X036346Y017335D01*
X036182Y017335D01*
X036101Y017417D01*
X036101Y017580D01*
X035912Y017662D02*
X035585Y017335D01*
X035912Y017335D01*
X035912Y017662D02*
X035912Y017744D01*
X035830Y017825D01*
X035667Y017825D01*
X035585Y017744D01*
X035667Y016825D02*
X035585Y016744D01*
X035667Y016825D02*
X035830Y016825D01*
X035912Y016744D01*
X035912Y016662D01*
X035585Y016335D01*
X035912Y016335D01*
X036101Y016417D02*
X036101Y016498D01*
X036182Y016580D01*
X036346Y016580D01*
X036428Y016498D01*
X036428Y016417D01*
X036346Y016335D01*
X036182Y016335D01*
X036101Y016417D01*
X036182Y016580D02*
X036101Y016662D01*
X036101Y016744D01*
X036182Y016825D01*
X036346Y016825D01*
X036428Y016744D01*
X036428Y016662D01*
X036346Y016580D01*
X036346Y015825D02*
X036182Y015825D01*
X036101Y015744D01*
X036101Y015417D01*
X036428Y015744D01*
X036428Y015417D01*
X036346Y015335D01*
X036182Y015335D01*
X036101Y015417D01*
X035912Y015417D02*
X035830Y015335D01*
X035667Y015335D01*
X035585Y015417D01*
X035748Y015580D02*
X035830Y015580D01*
X035912Y015498D01*
X035912Y015417D01*
X035830Y015580D02*
X035912Y015662D01*
X035912Y015744D01*
X035830Y015825D01*
X035667Y015825D01*
X035585Y015744D01*
X036346Y015825D02*
X036428Y015744D01*
X036346Y014825D02*
X036182Y014825D01*
X036101Y014744D01*
X035912Y014744D02*
X035912Y014662D01*
X035830Y014580D01*
X035912Y014498D01*
X035912Y014417D01*
X035830Y014335D01*
X035667Y014335D01*
X035585Y014417D01*
X035748Y014580D02*
X035830Y014580D01*
X035912Y014744D02*
X035830Y014825D01*
X035667Y014825D01*
X035585Y014744D01*
X036101Y014335D02*
X036428Y014662D01*
X036428Y014744D01*
X036346Y014825D01*
X036428Y014335D02*
X036101Y014335D01*
X036346Y013825D02*
X036101Y013580D01*
X036428Y013580D01*
X036346Y013335D02*
X036346Y013825D01*
X035912Y013744D02*
X035912Y013662D01*
X035830Y013580D01*
X035912Y013498D01*
X035912Y013417D01*
X035830Y013335D01*
X035667Y013335D01*
X035585Y013417D01*
X035748Y013580D02*
X035830Y013580D01*
X035912Y013744D02*
X035830Y013825D01*
X035667Y013825D01*
X035585Y013744D01*
X035667Y012825D02*
X035830Y012825D01*
X035912Y012744D01*
X035912Y012662D01*
X035830Y012580D01*
X035912Y012498D01*
X035912Y012417D01*
X035830Y012335D01*
X035667Y012335D01*
X035585Y012417D01*
X035748Y012580D02*
X035830Y012580D01*
X036101Y012580D02*
X036101Y012417D01*
X036182Y012335D01*
X036346Y012335D01*
X036428Y012417D01*
X036428Y012498D01*
X036346Y012580D01*
X036101Y012580D01*
X036264Y012744D01*
X036428Y012825D01*
X035667Y012825D02*
X035585Y012744D01*
X035667Y011825D02*
X035830Y011825D01*
X035912Y011744D01*
X035912Y011662D01*
X035830Y011580D01*
X035912Y011498D01*
X035912Y011417D01*
X035830Y011335D01*
X035667Y011335D01*
X035585Y011417D01*
X035748Y011580D02*
X035830Y011580D01*
X036101Y011498D02*
X036101Y011417D01*
X036182Y011335D01*
X036346Y011335D01*
X036428Y011417D01*
X036428Y011498D01*
X036346Y011580D01*
X036182Y011580D01*
X036101Y011662D01*
X036101Y011744D01*
X036182Y011825D01*
X036346Y011825D01*
X036428Y011744D01*
X036428Y011662D01*
X036346Y011580D01*
X036182Y011580D02*
X036101Y011498D01*
X035667Y011825D02*
X035585Y011744D01*
X035830Y010825D02*
X035585Y010580D01*
X035912Y010580D01*
X036101Y010417D02*
X036101Y010744D01*
X036182Y010825D01*
X036346Y010825D01*
X036428Y010744D01*
X036101Y010417D01*
X036182Y010335D01*
X036346Y010335D01*
X036428Y010417D01*
X036428Y010744D01*
X035830Y010825D02*
X035830Y010335D01*
X035830Y009825D02*
X035585Y009580D01*
X035912Y009580D01*
X036101Y009744D02*
X036182Y009825D01*
X036346Y009825D01*
X036428Y009744D01*
X036428Y009662D01*
X036101Y009335D01*
X036428Y009335D01*
X036346Y008825D02*
X036101Y008580D01*
X036428Y008580D01*
X036346Y008335D02*
X036346Y008825D01*
X035912Y008580D02*
X035585Y008580D01*
X035830Y008825D01*
X035830Y008335D01*
X035830Y007825D02*
X035585Y007580D01*
X035912Y007580D01*
X036101Y007580D02*
X036346Y007580D01*
X036428Y007498D01*
X036428Y007417D01*
X036346Y007335D01*
X036182Y007335D01*
X036101Y007417D01*
X036101Y007580D01*
X036264Y007744D01*
X036428Y007825D01*
X035830Y007825D02*
X035830Y007335D01*
X035830Y006825D02*
X035585Y006580D01*
X035912Y006580D01*
X036101Y006498D02*
X036182Y006580D01*
X036346Y006580D01*
X036428Y006498D01*
X036428Y006417D01*
X036346Y006335D01*
X036182Y006335D01*
X036101Y006417D01*
X036101Y006498D01*
X036182Y006580D02*
X036101Y006662D01*
X036101Y006744D01*
X036182Y006825D01*
X036346Y006825D01*
X036428Y006744D01*
X036428Y006662D01*
X036346Y006580D01*
X035830Y006335D02*
X035830Y006825D01*
X034246Y007075D02*
X034001Y007075D01*
X033919Y007157D01*
X033919Y007320D01*
X034001Y007402D01*
X034246Y007402D01*
X034246Y007565D02*
X034246Y007075D01*
X033731Y007075D02*
X033731Y007320D01*
X033649Y007402D01*
X033404Y007402D01*
X033404Y007075D01*
X033215Y007075D02*
X032970Y007075D01*
X032888Y007157D01*
X032888Y007320D01*
X032970Y007402D01*
X033215Y007402D01*
X033215Y006993D01*
X033133Y006912D01*
X033052Y006912D01*
X035585Y005825D02*
X035585Y005580D01*
X035748Y005662D01*
X035830Y005662D01*
X035912Y005580D01*
X035912Y005417D01*
X035830Y005335D01*
X035667Y005335D01*
X035585Y005417D01*
X036101Y005417D02*
X036428Y005744D01*
X036428Y005417D01*
X036346Y005335D01*
X036182Y005335D01*
X036101Y005417D01*
X036101Y005744D01*
X036182Y005825D01*
X036346Y005825D01*
X036428Y005744D01*
X035912Y005825D02*
X035585Y005825D01*
X035585Y004825D02*
X035585Y004580D01*
X035748Y004662D01*
X035830Y004662D01*
X035912Y004580D01*
X035912Y004417D01*
X035830Y004335D01*
X035667Y004335D01*
X035585Y004417D01*
X036101Y004335D02*
X036428Y004662D01*
X036428Y004744D01*
X036346Y004825D01*
X036182Y004825D01*
X036101Y004744D01*
X035912Y004825D02*
X035585Y004825D01*
X036101Y004335D02*
X036428Y004335D01*
X036183Y003278D02*
X036265Y003196D01*
X036265Y003032D01*
X036183Y002951D01*
X036020Y002951D02*
X035938Y003114D01*
X035938Y003196D01*
X036020Y003278D01*
X036183Y003278D01*
X035775Y003278D02*
X035775Y002951D01*
X036020Y002951D01*
X036265Y002762D02*
X036265Y002435D01*
X036265Y002598D02*
X035775Y002598D01*
X035938Y002435D01*
X035315Y002435D02*
X035315Y002762D01*
X035315Y002598D02*
X034825Y002598D01*
X034988Y002435D01*
X034315Y002435D02*
X034315Y002762D01*
X034315Y002598D02*
X033825Y002598D01*
X033988Y002435D01*
X033906Y002951D02*
X033825Y003032D01*
X033825Y003196D01*
X033906Y003278D01*
X033988Y003278D01*
X034070Y003196D01*
X034152Y003278D01*
X034233Y003278D01*
X034315Y003196D01*
X034315Y003032D01*
X034233Y002951D01*
X034070Y003114D02*
X034070Y003196D01*
X034825Y003196D02*
X035070Y002951D01*
X035070Y003278D01*
X035315Y003196D02*
X034825Y003196D01*
X033315Y003278D02*
X033315Y002951D01*
X032988Y003278D01*
X032906Y003278D01*
X032825Y003196D01*
X032825Y003032D01*
X032906Y002951D01*
X032825Y002598D02*
X033315Y002598D01*
X033315Y002435D02*
X033315Y002762D01*
X032988Y002435D02*
X032825Y002598D01*
X032315Y002598D02*
X031825Y002598D01*
X031988Y002435D01*
X032315Y002435D02*
X032315Y002762D01*
X032315Y002951D02*
X032315Y003278D01*
X032315Y003114D02*
X031825Y003114D01*
X031988Y002951D01*
X030315Y002730D02*
X030233Y002812D01*
X029906Y002812D01*
X029825Y002730D01*
X029825Y002567D01*
X029906Y002485D01*
X029988Y002485D01*
X030070Y002567D01*
X030070Y002812D01*
X030315Y002730D02*
X030315Y002567D01*
X030233Y002485D01*
X029596Y002975D02*
X029351Y002975D01*
X029269Y003057D01*
X029269Y003220D01*
X029351Y003302D01*
X029596Y003302D01*
X029596Y003465D02*
X029596Y002975D01*
X029315Y002680D02*
X029233Y002762D01*
X029152Y002762D01*
X029070Y002680D01*
X029070Y002517D01*
X028988Y002435D01*
X028906Y002435D01*
X028825Y002517D01*
X028825Y002680D01*
X028906Y002762D01*
X028988Y002762D01*
X029070Y002680D01*
X029070Y002517D02*
X029152Y002435D01*
X029233Y002435D01*
X029315Y002517D01*
X029315Y002680D01*
X029081Y002975D02*
X029081Y003220D01*
X028999Y003302D01*
X028754Y003302D01*
X028754Y002975D01*
X028565Y002975D02*
X028320Y002975D01*
X028238Y003057D01*
X028238Y003220D01*
X028320Y003302D01*
X028565Y003302D01*
X028565Y002893D01*
X028483Y002812D01*
X028402Y002812D01*
X027315Y002435D02*
X027233Y002435D01*
X026906Y002762D01*
X026825Y002762D01*
X026825Y002435D01*
X026265Y002517D02*
X026265Y002680D01*
X026183Y002762D01*
X026102Y002762D01*
X026020Y002680D01*
X026020Y002435D01*
X026183Y002435D01*
X026265Y002517D01*
X026020Y002435D02*
X025856Y002598D01*
X025775Y002762D01*
X025265Y002680D02*
X025265Y002517D01*
X025183Y002435D01*
X025020Y002435D02*
X024938Y002598D01*
X024938Y002680D01*
X025020Y002762D01*
X025183Y002762D01*
X025265Y002680D01*
X025020Y002435D02*
X024775Y002435D01*
X024775Y002762D01*
X024315Y002680D02*
X023825Y002680D01*
X024070Y002435D01*
X024070Y002762D01*
X023315Y002680D02*
X023315Y002517D01*
X023233Y002435D01*
X023070Y002598D02*
X023070Y002680D01*
X023152Y002762D01*
X023233Y002762D01*
X023315Y002680D01*
X023070Y002680D02*
X022988Y002762D01*
X022906Y002762D01*
X022825Y002680D01*
X022825Y002517D01*
X022906Y002435D01*
X022315Y002435D02*
X021988Y002762D01*
X021906Y002762D01*
X021825Y002680D01*
X021825Y002517D01*
X021906Y002435D01*
X022315Y002435D02*
X022315Y002762D01*
X021215Y002762D02*
X021215Y002435D01*
X021215Y002598D02*
X020725Y002598D01*
X020888Y002435D01*
X020315Y002517D02*
X020233Y002435D01*
X019906Y002762D01*
X020233Y002762D01*
X020315Y002680D01*
X020315Y002517D01*
X020233Y002435D02*
X019906Y002435D01*
X019825Y002517D01*
X019825Y002680D01*
X019906Y002762D01*
X018786Y002757D02*
X018786Y002267D01*
X018459Y002757D01*
X018459Y002267D01*
X018279Y002267D02*
X018115Y002267D01*
X018197Y002267D02*
X018197Y002757D01*
X018115Y002757D02*
X018279Y002757D01*
X017927Y002757D02*
X017927Y002430D01*
X017763Y002267D01*
X017600Y002430D01*
X017600Y002757D01*
X017238Y002675D02*
X017156Y002757D01*
X016911Y002757D01*
X016911Y002267D01*
X017156Y002267D01*
X017238Y002348D01*
X017238Y002675D01*
X016722Y002757D02*
X016722Y002267D01*
X016395Y002757D01*
X016395Y002267D01*
X016207Y002348D02*
X016125Y002267D01*
X015962Y002267D01*
X015880Y002348D01*
X015880Y002675D01*
X015962Y002757D01*
X016125Y002757D01*
X016207Y002675D01*
X016207Y002512D02*
X016043Y002512D01*
X016207Y002512D02*
X016207Y002348D01*
X015522Y002430D02*
X015522Y002757D01*
X015195Y002757D02*
X015195Y002430D01*
X015359Y002267D01*
X015522Y002430D01*
X015007Y002348D02*
X014925Y002267D01*
X014762Y002267D01*
X014680Y002348D01*
X014680Y002512D02*
X014843Y002594D01*
X014925Y002594D01*
X015007Y002512D01*
X015007Y002348D01*
X014680Y002512D02*
X014680Y002757D01*
X015007Y002757D01*
X014303Y002939D02*
X014140Y003102D01*
X013813Y003102D01*
X013895Y003291D02*
X013813Y003373D01*
X013813Y003536D01*
X013895Y003618D01*
X013976Y003618D01*
X014058Y003536D01*
X014140Y003618D01*
X014222Y003618D01*
X014303Y003536D01*
X014303Y003373D01*
X014222Y003291D01*
X014058Y003455D02*
X014058Y003536D01*
X013303Y003536D02*
X013303Y003373D01*
X013222Y003291D01*
X013058Y003373D02*
X013058Y003536D01*
X013140Y003618D01*
X013222Y003618D01*
X013303Y003536D01*
X013303Y003807D02*
X013303Y004134D01*
X013058Y003970D02*
X013058Y003807D01*
X012813Y003807D02*
X013303Y003807D01*
X012895Y003618D02*
X012813Y003536D01*
X012813Y003373D01*
X012895Y003291D01*
X012976Y003291D01*
X013058Y003373D01*
X012813Y003102D02*
X012813Y002775D01*
X013303Y002775D01*
X013303Y003102D01*
X013058Y002939D02*
X013058Y002775D01*
X013058Y002587D02*
X013140Y002505D01*
X013140Y002260D01*
X013303Y002260D02*
X012813Y002260D01*
X012813Y002505D01*
X012895Y002587D01*
X013058Y002587D01*
X013140Y002423D02*
X013303Y002587D01*
X013813Y002505D02*
X013895Y002587D01*
X013976Y002587D01*
X014058Y002505D01*
X014140Y002587D01*
X014222Y002587D01*
X014303Y002505D01*
X014303Y002342D01*
X014222Y002260D01*
X014058Y002423D02*
X014058Y002505D01*
X013813Y002505D02*
X013813Y002342D01*
X013895Y002260D01*
X013813Y002775D02*
X014140Y002775D01*
X014303Y002939D01*
X012813Y003807D02*
X012813Y004134D01*
X012813Y004322D02*
X012813Y004649D01*
X012813Y004486D02*
X013303Y004486D01*
X010183Y001834D02*
X010183Y001507D01*
X010346Y001670D02*
X010019Y001670D01*
X002596Y002225D02*
X002351Y002225D01*
X002269Y002307D01*
X002269Y002470D01*
X002351Y002552D01*
X002596Y002552D01*
X002596Y002715D02*
X002596Y002225D01*
X002081Y002225D02*
X002081Y002470D01*
X001999Y002552D01*
X001754Y002552D01*
X001754Y002225D01*
X001565Y002225D02*
X001320Y002225D01*
X001238Y002307D01*
X001238Y002470D01*
X001320Y002552D01*
X001565Y002552D01*
X001565Y002143D01*
X001483Y002062D01*
X001402Y002062D01*
X001552Y008412D02*
X001633Y008412D01*
X001715Y008493D01*
X001715Y008902D01*
X001470Y008902D01*
X001388Y008820D01*
X001388Y008657D01*
X001470Y008575D01*
X001715Y008575D01*
X001904Y008575D02*
X001904Y008902D01*
X002149Y008902D01*
X002231Y008820D01*
X002231Y008575D01*
X002419Y008657D02*
X002419Y008820D01*
X002501Y008902D01*
X002746Y008902D01*
X002746Y009065D02*
X002746Y008575D01*
X002501Y008575D01*
X002419Y008657D01*
X003669Y010425D02*
X003996Y010425D01*
X003833Y010425D02*
X003833Y010915D01*
X003669Y010752D01*
X001633Y017025D02*
X001796Y017188D01*
X001796Y017515D01*
X001469Y017515D02*
X001469Y017188D01*
X001633Y017025D01*
X001281Y017107D02*
X001281Y017270D01*
X001199Y017352D01*
X001117Y017352D01*
X000954Y017270D01*
X000954Y017515D01*
X001281Y017515D01*
X001281Y017107D02*
X001199Y017025D01*
X001035Y017025D01*
X000954Y017107D01*
X000765Y017270D02*
X000438Y017270D01*
X000602Y017434D02*
X000602Y017107D01*
X028238Y007270D02*
X028238Y007107D01*
X028320Y007025D01*
X028565Y007025D01*
X028565Y006943D02*
X028565Y007352D01*
X028320Y007352D01*
X028238Y007270D01*
X028402Y006862D02*
X028483Y006862D01*
X028565Y006943D01*
X028754Y007025D02*
X028754Y007352D01*
X028999Y007352D01*
X029081Y007270D01*
X029081Y007025D01*
X029269Y007107D02*
X029351Y007025D01*
X029596Y007025D01*
X029596Y007515D01*
X029596Y007352D02*
X029351Y007352D01*
X029269Y007270D01*
X029269Y007107D01*
X031952Y010207D02*
X031952Y010534D01*
X031788Y010370D02*
X032115Y010370D01*
X032304Y010370D02*
X032304Y010615D01*
X032631Y010615D01*
X032549Y010452D02*
X032631Y010370D01*
X032631Y010207D01*
X032549Y010125D01*
X032385Y010125D01*
X032304Y010207D01*
X032304Y010370D02*
X032467Y010452D01*
X032549Y010452D01*
X032819Y010615D02*
X032819Y010288D01*
X032983Y010125D01*
X033146Y010288D01*
X033146Y010615D01*
X035830Y009825D02*
X035830Y009335D01*
X038835Y009580D02*
X039162Y009580D01*
X039351Y009417D02*
X039432Y009335D01*
X039596Y009335D01*
X039678Y009417D01*
X039678Y009498D01*
X039596Y009580D01*
X039514Y009580D01*
X039596Y009580D02*
X039678Y009662D01*
X039678Y009744D01*
X039596Y009825D01*
X039432Y009825D01*
X039351Y009744D01*
X039080Y009825D02*
X038835Y009580D01*
X039080Y009335D02*
X039080Y009825D01*
X039080Y010335D02*
X039080Y010825D01*
X038835Y010580D01*
X039162Y010580D01*
X039351Y010662D02*
X039514Y010825D01*
X039514Y010335D01*
X039351Y010335D02*
X039678Y010335D01*
X039596Y011335D02*
X039432Y011335D01*
X039351Y011417D01*
X039432Y011580D02*
X039678Y011580D01*
X039678Y011417D02*
X039678Y011744D01*
X039596Y011825D01*
X039432Y011825D01*
X039351Y011744D01*
X039351Y011662D01*
X039432Y011580D01*
X039162Y011498D02*
X039162Y011417D01*
X039080Y011335D01*
X038917Y011335D01*
X038835Y011417D01*
X038998Y011580D02*
X039080Y011580D01*
X039162Y011498D01*
X039080Y011580D02*
X039162Y011662D01*
X039162Y011744D01*
X039080Y011825D01*
X038917Y011825D01*
X038835Y011744D01*
X038917Y012335D02*
X038835Y012417D01*
X038917Y012335D02*
X039080Y012335D01*
X039162Y012417D01*
X039162Y012498D01*
X039080Y012580D01*
X038998Y012580D01*
X039080Y012580D02*
X039162Y012662D01*
X039162Y012744D01*
X039080Y012825D01*
X038917Y012825D01*
X038835Y012744D01*
X039351Y012825D02*
X039678Y012825D01*
X039678Y012744D01*
X039351Y012417D01*
X039351Y012335D01*
X039678Y011417D02*
X039596Y011335D01*
X039596Y013335D02*
X039432Y013335D01*
X039351Y013417D01*
X039351Y013580D02*
X039514Y013662D01*
X039596Y013662D01*
X039678Y013580D01*
X039678Y013417D01*
X039596Y013335D01*
X039351Y013580D02*
X039351Y013825D01*
X039678Y013825D01*
X039162Y013744D02*
X039162Y013662D01*
X039080Y013580D01*
X039162Y013498D01*
X039162Y013417D01*
X039080Y013335D01*
X038917Y013335D01*
X038835Y013417D01*
X038998Y013580D02*
X039080Y013580D01*
X039162Y013744D02*
X039080Y013825D01*
X038917Y013825D01*
X038835Y013744D01*
X038917Y014335D02*
X038835Y014417D01*
X038917Y014335D02*
X039080Y014335D01*
X039162Y014417D01*
X039162Y014498D01*
X039080Y014580D01*
X038998Y014580D01*
X039080Y014580D02*
X039162Y014662D01*
X039162Y014744D01*
X039080Y014825D01*
X038917Y014825D01*
X038835Y014744D01*
X039351Y014744D02*
X039432Y014825D01*
X039596Y014825D01*
X039678Y014744D01*
X039678Y014662D01*
X039596Y014580D01*
X039678Y014498D01*
X039678Y014417D01*
X039596Y014335D01*
X039432Y014335D01*
X039351Y014417D01*
X039514Y014580D02*
X039596Y014580D01*
X039678Y015335D02*
X039351Y015335D01*
X039514Y015335D02*
X039514Y015825D01*
X039351Y015662D01*
X039162Y015662D02*
X039080Y015580D01*
X039162Y015498D01*
X039162Y015417D01*
X039080Y015335D01*
X038917Y015335D01*
X038835Y015417D01*
X038998Y015580D02*
X039080Y015580D01*
X039162Y015662D02*
X039162Y015744D01*
X039080Y015825D01*
X038917Y015825D01*
X038835Y015744D01*
X039080Y008825D02*
X038835Y008580D01*
X039162Y008580D01*
X039351Y008580D02*
X039514Y008662D01*
X039596Y008662D01*
X039678Y008580D01*
X039678Y008417D01*
X039596Y008335D01*
X039432Y008335D01*
X039351Y008417D01*
X039351Y008580D02*
X039351Y008825D01*
X039678Y008825D01*
X039080Y008825D02*
X039080Y008335D01*
X039080Y007825D02*
X038835Y007580D01*
X039162Y007580D01*
X039351Y007417D02*
X039351Y007335D01*
X039351Y007417D02*
X039678Y007744D01*
X039678Y007825D01*
X039351Y007825D01*
X039080Y007825D02*
X039080Y007335D01*
X039080Y006825D02*
X038835Y006580D01*
X039162Y006580D01*
X039351Y006662D02*
X039432Y006580D01*
X039678Y006580D01*
X039678Y006417D02*
X039678Y006744D01*
X039596Y006825D01*
X039432Y006825D01*
X039351Y006744D01*
X039351Y006662D01*
X039351Y006417D02*
X039432Y006335D01*
X039596Y006335D01*
X039678Y006417D01*
X039080Y006335D02*
X039080Y006825D01*
X039162Y005825D02*
X038835Y005825D01*
X038835Y005580D01*
X038998Y005662D01*
X039080Y005662D01*
X039162Y005580D01*
X039162Y005417D01*
X039080Y005335D01*
X038917Y005335D01*
X038835Y005417D01*
X039351Y005335D02*
X039678Y005335D01*
X039514Y005335D02*
X039514Y005825D01*
X039351Y005662D01*
X039432Y004825D02*
X039596Y004825D01*
X039678Y004744D01*
X039678Y004662D01*
X039596Y004580D01*
X039678Y004498D01*
X039678Y004417D01*
X039596Y004335D01*
X039432Y004335D01*
X039351Y004417D01*
X039162Y004417D02*
X039080Y004335D01*
X038917Y004335D01*
X038835Y004417D01*
X038835Y004580D02*
X038998Y004662D01*
X039080Y004662D01*
X039162Y004580D01*
X039162Y004417D01*
X038835Y004580D02*
X038835Y004825D01*
X039162Y004825D01*
X039351Y004744D02*
X039432Y004825D01*
X039514Y004580D02*
X039596Y004580D01*
X039516Y003075D02*
X039761Y003075D01*
X039843Y002994D01*
X039843Y002667D01*
X039761Y002585D01*
X039516Y002585D01*
X039516Y003075D01*
X039328Y003075D02*
X039328Y002585D01*
X039001Y003075D01*
X039001Y002585D01*
X038812Y002667D02*
X038812Y002830D01*
X038648Y002830D01*
X038485Y002667D02*
X038567Y002585D01*
X038730Y002585D01*
X038812Y002667D01*
X038485Y002667D02*
X038485Y002994D01*
X038567Y003075D01*
X038730Y003075D01*
X038812Y002994D01*
D14*
X024507Y012385D02*
X024226Y012385D01*
X024366Y012385D02*
X024366Y012806D01*
X024226Y012665D01*
D15*
X024600Y012800D02*
X024600Y012300D01*
X024850Y012050D01*
X026350Y012050D01*
X026600Y011800D01*
X026600Y011300D01*
X026350Y011050D01*
X026600Y010800D01*
X026600Y010300D01*
X026350Y010050D01*
X024850Y010050D01*
X024600Y010300D01*
X024600Y010800D01*
X024850Y011050D01*
X026350Y011050D01*
X026350Y012050D02*
X026600Y012300D01*
X026600Y012800D01*
X026350Y013050D01*
X024850Y013050D01*
X024600Y012800D01*
X024850Y012050D02*
X024600Y011800D01*
X024600Y011300D01*
X024850Y011050D01*
X023650Y010950D02*
X023650Y011750D01*
X023648Y011767D01*
X023644Y011784D01*
X023637Y011800D01*
X023627Y011814D01*
X023614Y011827D01*
X023600Y011837D01*
X023584Y011844D01*
X023567Y011848D01*
X023550Y011850D01*
X020850Y011850D01*
X020833Y011848D01*
X020816Y011844D01*
X020800Y011837D01*
X020786Y011827D01*
X020773Y011814D01*
X020763Y011800D01*
X020756Y011784D01*
X020752Y011767D01*
X020750Y011750D01*
X020750Y010950D01*
X020752Y010933D01*
X020756Y010916D01*
X020763Y010900D01*
X020773Y010886D01*
X020786Y010873D01*
X020800Y010863D01*
X020816Y010856D01*
X020833Y010852D01*
X020850Y010850D01*
X023550Y010850D01*
X023567Y010852D01*
X023584Y010856D01*
X023600Y010863D01*
X023614Y010873D01*
X023627Y010886D01*
X023637Y010900D01*
X023644Y010916D01*
X023648Y010933D01*
X023650Y010950D01*
X023350Y010300D02*
X022600Y010300D01*
X022598Y010261D01*
X022592Y010222D01*
X022583Y010184D01*
X022570Y010147D01*
X022553Y010111D01*
X022533Y010078D01*
X022509Y010046D01*
X022483Y010017D01*
X022454Y009991D01*
X022422Y009967D01*
X022389Y009947D01*
X022353Y009930D01*
X022316Y009917D01*
X022278Y009908D01*
X022239Y009902D01*
X022200Y009900D01*
X022161Y009902D01*
X022122Y009908D01*
X022084Y009917D01*
X022047Y009930D01*
X022011Y009947D01*
X021978Y009967D01*
X021946Y009991D01*
X021917Y010017D01*
X021891Y010046D01*
X021867Y010078D01*
X021847Y010111D01*
X021830Y010147D01*
X021817Y010184D01*
X021808Y010222D01*
X021802Y010261D01*
X021800Y010300D01*
X021050Y010300D01*
X021050Y003300D01*
X023350Y003300D01*
X023350Y010300D01*
X022800Y011350D02*
X022330Y011350D01*
X022080Y011350D02*
X021600Y011350D01*
X018500Y012050D02*
X018500Y012200D01*
X018498Y012217D01*
X018494Y012234D01*
X018487Y012250D01*
X018477Y012264D01*
X018464Y012277D01*
X018450Y012287D01*
X018434Y012294D01*
X018417Y012298D01*
X018400Y012300D01*
X017700Y012300D01*
X017683Y012298D01*
X017666Y012294D01*
X017650Y012287D01*
X017636Y012277D01*
X017623Y012264D01*
X017613Y012250D01*
X017606Y012234D01*
X017602Y012217D01*
X017600Y012200D01*
X017600Y012050D01*
X017650Y012000D01*
X017650Y010100D01*
X017600Y010050D01*
X017600Y009900D01*
X017602Y009883D01*
X017606Y009866D01*
X017613Y009850D01*
X017623Y009836D01*
X017636Y009823D01*
X017650Y009813D01*
X017666Y009806D01*
X017683Y009802D01*
X017700Y009800D01*
X018400Y009800D01*
X018417Y009802D01*
X018434Y009806D01*
X018450Y009813D01*
X018464Y009823D01*
X018477Y009836D01*
X018487Y009850D01*
X018494Y009866D01*
X018498Y009883D01*
X018500Y009900D01*
X018500Y010050D01*
X018450Y010100D01*
X018450Y012000D01*
X018500Y012050D01*
X023350Y013700D02*
X023350Y014400D01*
X023352Y014417D01*
X023356Y014434D01*
X023363Y014450D01*
X023373Y014464D01*
X023386Y014477D01*
X023400Y014487D01*
X023416Y014494D01*
X023433Y014498D01*
X023450Y014500D01*
X023600Y014500D01*
X023650Y014450D01*
X025550Y014450D01*
X025600Y014500D01*
X025750Y014500D01*
X025767Y014498D01*
X025784Y014494D01*
X025800Y014487D01*
X025814Y014477D01*
X025827Y014464D01*
X025837Y014450D01*
X025844Y014434D01*
X025848Y014417D01*
X025850Y014400D01*
X025850Y013700D01*
X025848Y013683D01*
X025844Y013666D01*
X025837Y013650D01*
X025827Y013636D01*
X025814Y013623D01*
X025800Y013613D01*
X025784Y013606D01*
X025767Y013602D01*
X025750Y013600D01*
X025600Y013600D01*
X025550Y013650D01*
X023650Y013650D01*
X023600Y013600D01*
X023450Y013600D01*
X023433Y013602D01*
X023416Y013606D01*
X023400Y013613D01*
X023386Y013623D01*
X023373Y013636D01*
X023363Y013650D01*
X023356Y013666D01*
X023352Y013683D01*
X023350Y013700D01*
X023400Y014800D02*
X023550Y014800D01*
X023600Y014850D01*
X025500Y014850D01*
X025550Y014800D01*
X025700Y014800D01*
X025717Y014802D01*
X025734Y014806D01*
X025750Y014813D01*
X025764Y014823D01*
X025777Y014836D01*
X025787Y014850D01*
X025794Y014866D01*
X025798Y014883D01*
X025800Y014900D01*
X025800Y015600D01*
X025798Y015617D01*
X025794Y015634D01*
X025787Y015650D01*
X025777Y015664D01*
X025764Y015677D01*
X025750Y015687D01*
X025734Y015694D01*
X025717Y015698D01*
X025700Y015700D01*
X025550Y015700D01*
X025500Y015650D01*
X023600Y015650D01*
X023550Y015700D01*
X023400Y015700D01*
X023383Y015698D01*
X023366Y015694D01*
X023350Y015687D01*
X023336Y015677D01*
X023323Y015664D01*
X023313Y015650D01*
X023306Y015634D01*
X023302Y015617D01*
X023300Y015600D01*
X023300Y014900D01*
X023302Y014883D01*
X023306Y014866D01*
X023313Y014850D01*
X023323Y014836D01*
X023336Y014823D01*
X023350Y014813D01*
X023366Y014806D01*
X023383Y014802D01*
X023400Y014800D01*
X025850Y017350D02*
X026000Y017350D01*
X026050Y017400D01*
X027950Y017400D01*
X028000Y017350D01*
X028150Y017350D01*
X028167Y017352D01*
X028184Y017356D01*
X028200Y017363D01*
X028214Y017373D01*
X028227Y017386D01*
X028237Y017400D01*
X028244Y017416D01*
X028248Y017433D01*
X028250Y017450D01*
X028250Y018150D01*
X028248Y018167D01*
X028244Y018184D01*
X028237Y018200D01*
X028227Y018214D01*
X028214Y018227D01*
X028200Y018237D01*
X028184Y018244D01*
X028167Y018248D01*
X028150Y018250D01*
X028000Y018250D01*
X027950Y018200D01*
X026050Y018200D01*
X026000Y018250D01*
X025850Y018250D01*
X025833Y018248D01*
X025816Y018244D01*
X025800Y018237D01*
X025786Y018227D01*
X025773Y018214D01*
X025763Y018200D01*
X025756Y018184D01*
X025752Y018167D01*
X025750Y018150D01*
X025750Y017450D01*
X025752Y017433D01*
X025756Y017416D01*
X025763Y017400D01*
X025773Y017386D01*
X025786Y017373D01*
X025800Y017363D01*
X025816Y017356D01*
X025833Y017352D01*
X025850Y017350D01*
X025900Y018400D02*
X026050Y018400D01*
X026100Y018450D01*
X028000Y018450D01*
X028050Y018400D01*
X028200Y018400D01*
X028217Y018402D01*
X028234Y018406D01*
X028250Y018413D01*
X028264Y018423D01*
X028277Y018436D01*
X028287Y018450D01*
X028294Y018466D01*
X028298Y018483D01*
X028300Y018500D01*
X028300Y019200D01*
X028298Y019217D01*
X028294Y019234D01*
X028287Y019250D01*
X028277Y019264D01*
X028264Y019277D01*
X028250Y019287D01*
X028234Y019294D01*
X028217Y019298D01*
X028200Y019300D01*
X028050Y019300D01*
X028000Y019250D01*
X026100Y019250D01*
X026050Y019300D01*
X025900Y019300D01*
X025883Y019298D01*
X025866Y019294D01*
X025850Y019287D01*
X025836Y019277D01*
X025823Y019264D01*
X025813Y019250D01*
X025806Y019234D01*
X025802Y019217D01*
X025800Y019200D01*
X025800Y018500D01*
X025802Y018483D01*
X025806Y018466D01*
X025813Y018450D01*
X025823Y018436D01*
X025836Y018423D01*
X025850Y018413D01*
X025866Y018406D01*
X025883Y018402D01*
X025900Y018400D01*
X025300Y020050D02*
X024800Y020050D01*
X024550Y020300D01*
X024300Y020050D01*
X023800Y020050D01*
X023550Y020300D01*
X023550Y020800D01*
X023800Y021050D01*
X024300Y021050D01*
X024550Y020800D01*
X024800Y021050D01*
X025300Y021050D01*
X025550Y020800D01*
X025550Y020300D01*
X025300Y020050D01*
X024550Y020300D02*
X024550Y020800D01*
X023550Y020800D02*
X023300Y021050D01*
X022800Y021050D01*
X022550Y020800D01*
X022300Y021050D01*
X021800Y021050D01*
X021550Y020800D01*
X021300Y021050D01*
X020800Y021050D01*
X020550Y020800D01*
X020550Y020300D01*
X020800Y020050D01*
X021300Y020050D01*
X021550Y020300D01*
X021550Y020800D01*
X021550Y020300D02*
X021800Y020050D01*
X022300Y020050D01*
X022550Y020300D01*
X022550Y020800D01*
X022550Y020300D02*
X022800Y020050D01*
X023300Y020050D01*
X023550Y020300D01*
X020550Y020300D02*
X020300Y020050D01*
X019800Y020050D01*
X019550Y020300D01*
X019300Y020050D01*
X018800Y020050D01*
X018550Y020300D01*
X018300Y020050D01*
X017800Y020050D01*
X017550Y020300D01*
X017550Y020800D01*
X017800Y021050D01*
X018300Y021050D01*
X018550Y020800D01*
X018800Y021050D01*
X019300Y021050D01*
X019550Y020800D01*
X019800Y021050D01*
X020300Y021050D01*
X020550Y020800D01*
X019550Y020800D02*
X019550Y020300D01*
X018550Y020300D02*
X018550Y020800D01*
X016950Y020800D02*
X016950Y020300D01*
X016700Y020050D01*
X016200Y020050D01*
X015950Y020300D01*
X015700Y020050D01*
X015200Y020050D01*
X014950Y020300D01*
X014950Y020800D01*
X015200Y021050D01*
X015700Y021050D01*
X015950Y020800D01*
X016200Y021050D01*
X016700Y021050D01*
X016950Y020800D01*
X015950Y020800D02*
X015950Y020300D01*
X014950Y020300D02*
X014700Y020050D01*
X014200Y020050D01*
X013950Y020300D01*
X013700Y020050D01*
X013200Y020050D01*
X012950Y020300D01*
X012700Y020050D01*
X012200Y020050D01*
X011950Y020300D01*
X011950Y020800D01*
X012200Y021050D01*
X012700Y021050D01*
X012950Y020800D01*
X013200Y021050D01*
X013700Y021050D01*
X013950Y020800D01*
X014200Y021050D01*
X014700Y021050D01*
X014950Y020800D01*
X013950Y020800D02*
X013950Y020300D01*
X012950Y020300D02*
X012950Y020800D01*
X011950Y020800D02*
X011700Y021050D01*
X011200Y021050D01*
X010950Y020800D01*
X010700Y021050D01*
X010200Y021050D01*
X009950Y020800D01*
X009700Y021050D01*
X009200Y021050D01*
X008950Y020800D01*
X008950Y020300D01*
X009200Y020050D01*
X009700Y020050D01*
X009950Y020300D01*
X009950Y020800D01*
X009950Y020300D02*
X010200Y020050D01*
X010700Y020050D01*
X010950Y020300D01*
X010950Y020800D01*
X010950Y020300D02*
X011200Y020050D01*
X011700Y020050D01*
X011950Y020300D01*
X008750Y019500D02*
X008750Y018000D01*
X008500Y017750D01*
X008000Y017750D01*
X007750Y018000D01*
X007750Y019500D01*
X007500Y019750D01*
X007000Y019750D01*
X006750Y019500D01*
X006500Y019750D01*
X006000Y019750D01*
X005750Y019500D01*
X005750Y018000D01*
X006000Y017750D01*
X006500Y017750D01*
X006750Y018000D01*
X006750Y019500D01*
X007750Y019500D02*
X008000Y019750D01*
X008500Y019750D01*
X008750Y019500D01*
X006886Y020587D02*
X006779Y020480D01*
X006565Y020480D01*
X006459Y020587D01*
X006886Y021014D01*
X006886Y020587D01*
X006886Y021014D02*
X006779Y021121D01*
X006565Y021121D01*
X006459Y021014D01*
X006459Y020587D01*
X006241Y020587D02*
X006134Y020480D01*
X005921Y020480D01*
X005814Y020587D01*
X006241Y021014D01*
X006241Y020587D01*
X006241Y021014D02*
X006134Y021121D01*
X005921Y021121D01*
X005814Y021014D01*
X005814Y020587D01*
X004952Y020694D02*
X004632Y020694D01*
X004525Y020587D01*
X004632Y020480D01*
X004952Y020480D01*
X004952Y020800D01*
X004845Y020907D01*
X004632Y020907D01*
X004308Y020800D02*
X004308Y020480D01*
X004308Y020800D02*
X004201Y020907D01*
X003880Y020907D01*
X003880Y020480D01*
X003663Y020480D02*
X003663Y020800D01*
X003556Y020907D01*
X003236Y020907D01*
X003236Y020480D01*
X003018Y020480D02*
X003018Y020800D01*
X002912Y020907D01*
X002698Y020907D01*
X002698Y020694D02*
X003018Y020694D01*
X003018Y020480D02*
X002698Y020480D01*
X002591Y020587D01*
X002698Y020694D01*
X002375Y020480D02*
X002162Y020480D01*
X002268Y020480D02*
X002268Y020907D01*
X002162Y020907D01*
X001945Y020907D02*
X001838Y020907D01*
X001625Y020694D01*
X001625Y020907D02*
X001625Y020480D01*
X001407Y020480D02*
X001407Y020907D01*
X001194Y021121D01*
X000980Y020907D01*
X000980Y020480D01*
X000980Y020800D02*
X001407Y020800D01*
X002268Y021121D02*
X002268Y021227D01*
X002050Y018950D02*
X002550Y018950D01*
X002800Y018700D01*
X002800Y018200D01*
X002550Y017950D01*
X002050Y017950D01*
X001800Y018200D01*
X001550Y017950D01*
X001050Y017950D01*
X000800Y018200D01*
X000800Y018700D01*
X001050Y018950D01*
X001550Y018950D01*
X001800Y018700D01*
X002050Y018950D01*
X001800Y018700D02*
X001800Y018200D01*
X002800Y018200D02*
X003050Y017950D01*
X003550Y017950D01*
X003800Y018200D01*
X004050Y017950D01*
X004550Y017950D01*
X004800Y018200D01*
X004800Y018700D01*
X004550Y018950D01*
X004050Y018950D01*
X003800Y018700D01*
X003800Y018200D01*
X003800Y018700D02*
X003550Y018950D01*
X003050Y018950D01*
X002800Y018700D01*
X006750Y018000D02*
X007000Y017750D01*
X007500Y017750D01*
X007750Y018000D01*
X008200Y015983D02*
X008520Y015983D01*
X008520Y015770D02*
X008200Y015770D01*
X008093Y015876D01*
X008200Y015983D01*
X008200Y015770D02*
X008093Y015663D01*
X008093Y015556D01*
X008520Y015556D01*
X008413Y015339D02*
X008200Y015339D01*
X008093Y015232D01*
X008093Y015018D01*
X008200Y014912D01*
X008413Y014912D01*
X008520Y015018D01*
X008520Y015232D01*
X008413Y015339D01*
X008520Y014694D02*
X008520Y014374D01*
X008413Y014267D01*
X008200Y014267D01*
X008093Y014374D01*
X008093Y014694D01*
X008413Y014052D02*
X008520Y014052D01*
X008520Y013945D01*
X008413Y013945D01*
X008413Y014052D01*
X008413Y013727D02*
X008306Y013620D01*
X008306Y013407D01*
X008200Y013300D01*
X008093Y013407D01*
X008093Y013727D01*
X008413Y013727D02*
X008520Y013620D01*
X008520Y013300D01*
X008413Y013083D02*
X008306Y012976D01*
X008306Y012762D01*
X008200Y012656D01*
X008093Y012762D01*
X008093Y013083D01*
X008413Y013083D02*
X008520Y012976D01*
X008520Y012656D01*
X008306Y012438D02*
X008306Y012011D01*
X008200Y012011D02*
X008093Y012118D01*
X008093Y012331D01*
X008200Y012438D01*
X008306Y012438D01*
X008520Y012331D02*
X008520Y012118D01*
X008413Y012011D01*
X008200Y012011D01*
X008093Y011794D02*
X008093Y011688D01*
X008306Y011474D01*
X008093Y011474D02*
X008520Y011474D01*
X008413Y011256D02*
X008520Y011150D01*
X008520Y010829D01*
X008734Y010829D02*
X008093Y010829D01*
X008093Y011150D01*
X008200Y011256D01*
X008413Y011256D01*
X008520Y010612D02*
X007879Y010612D01*
X008093Y010612D02*
X008093Y010292D01*
X008200Y010185D01*
X008413Y010185D01*
X008520Y010292D01*
X008520Y010612D01*
X008093Y009968D02*
X008093Y009861D01*
X008306Y009648D01*
X008093Y009648D02*
X008520Y009648D01*
X008413Y009430D02*
X008200Y009430D01*
X008093Y009323D01*
X008093Y009110D01*
X008200Y009003D01*
X008413Y009003D01*
X008520Y009110D01*
X008520Y009323D01*
X008413Y009430D01*
X008413Y008786D02*
X008093Y008786D01*
X008413Y008786D02*
X008520Y008679D01*
X008413Y008572D01*
X008520Y008465D01*
X008413Y008359D01*
X008093Y008359D01*
X008413Y008143D02*
X008520Y008143D01*
X008520Y008036D01*
X008413Y008036D01*
X008413Y008143D01*
X008306Y007819D02*
X008306Y007392D01*
X008200Y007392D02*
X008093Y007499D01*
X008093Y007712D01*
X008200Y007819D01*
X008306Y007819D01*
X008520Y007712D02*
X008520Y007499D01*
X008413Y007392D01*
X008200Y007392D01*
X008200Y007174D02*
X008093Y007068D01*
X008093Y006747D01*
X007879Y006747D02*
X008520Y006747D01*
X008520Y007068D01*
X008413Y007174D01*
X008200Y007174D01*
X008093Y006530D02*
X008520Y006530D01*
X008520Y006210D01*
X008413Y006103D01*
X008093Y006103D01*
X007986Y005885D02*
X007879Y005778D01*
X007879Y005565D01*
X007986Y005458D01*
X008413Y005458D01*
X008520Y005565D01*
X008520Y005778D01*
X008413Y005885D01*
X008200Y005242D02*
X008200Y005028D01*
X008200Y004812D02*
X008200Y004599D01*
X007986Y004706D02*
X007879Y004812D01*
X007986Y004706D02*
X008520Y004706D01*
X008520Y004381D02*
X008093Y004381D01*
X008520Y004381D02*
X008520Y004061D01*
X008413Y003954D01*
X008093Y003954D01*
X008093Y003738D02*
X008093Y003525D01*
X007986Y003631D02*
X008413Y003631D01*
X008520Y003738D01*
X008413Y003307D02*
X008306Y003200D01*
X008306Y002987D01*
X008200Y002880D01*
X008093Y002987D01*
X008093Y003307D01*
X008413Y003307D02*
X008520Y003200D01*
X008520Y002880D01*
X010100Y002350D02*
X010400Y002350D01*
X010250Y002200D02*
X010250Y002500D01*
X010900Y003200D02*
X010900Y003300D01*
X010450Y003300D01*
X010450Y003550D01*
X011350Y003550D01*
X011350Y003300D01*
X010900Y003300D01*
X009150Y003650D02*
X009152Y003733D01*
X009158Y003816D01*
X009168Y003899D01*
X009182Y003981D01*
X009199Y004063D01*
X009221Y004143D01*
X009246Y004222D01*
X009275Y004300D01*
X009308Y004377D01*
X009345Y004452D01*
X009384Y004525D01*
X009428Y004596D01*
X009474Y004665D01*
X009524Y004732D01*
X009577Y004796D01*
X009633Y004858D01*
X009692Y004917D01*
X009754Y004973D01*
X009818Y005026D01*
X009885Y005076D01*
X009954Y005122D01*
X010025Y005166D01*
X010098Y005205D01*
X010173Y005242D01*
X010250Y005275D01*
X010328Y005304D01*
X010407Y005329D01*
X010487Y005351D01*
X010569Y005368D01*
X010651Y005382D01*
X010734Y005392D01*
X010817Y005398D01*
X010900Y005400D01*
X010983Y005398D01*
X011066Y005392D01*
X011149Y005382D01*
X011231Y005368D01*
X011313Y005351D01*
X011393Y005329D01*
X011472Y005304D01*
X011550Y005275D01*
X011627Y005242D01*
X011702Y005205D01*
X011775Y005166D01*
X011846Y005122D01*
X011915Y005076D01*
X011982Y005026D01*
X012046Y004973D01*
X012108Y004917D01*
X012167Y004858D01*
X012223Y004796D01*
X012276Y004732D01*
X012326Y004665D01*
X012372Y004596D01*
X012416Y004525D01*
X012455Y004452D01*
X012492Y004377D01*
X012525Y004300D01*
X012554Y004222D01*
X012579Y004143D01*
X012601Y004063D01*
X012618Y003981D01*
X012632Y003899D01*
X012642Y003816D01*
X012648Y003733D01*
X012650Y003650D01*
X012648Y003567D01*
X012642Y003484D01*
X012632Y003401D01*
X012618Y003319D01*
X012601Y003237D01*
X012579Y003157D01*
X012554Y003078D01*
X012525Y003000D01*
X012492Y002923D01*
X012455Y002848D01*
X012416Y002775D01*
X012372Y002704D01*
X012326Y002635D01*
X012276Y002568D01*
X012223Y002504D01*
X012167Y002442D01*
X012108Y002383D01*
X012046Y002327D01*
X011982Y002274D01*
X011915Y002224D01*
X011846Y002178D01*
X011775Y002134D01*
X011702Y002095D01*
X011627Y002058D01*
X011550Y002025D01*
X011472Y001996D01*
X011393Y001971D01*
X011313Y001949D01*
X011231Y001932D01*
X011149Y001918D01*
X011066Y001908D01*
X010983Y001902D01*
X010900Y001900D01*
X010817Y001902D01*
X010734Y001908D01*
X010651Y001918D01*
X010569Y001932D01*
X010487Y001949D01*
X010407Y001971D01*
X010328Y001996D01*
X010250Y002025D01*
X010173Y002058D01*
X010098Y002095D01*
X010025Y002134D01*
X009954Y002178D01*
X009885Y002224D01*
X009818Y002274D01*
X009754Y002327D01*
X009692Y002383D01*
X009633Y002442D01*
X009577Y002504D01*
X009524Y002568D01*
X009474Y002635D01*
X009428Y002704D01*
X009384Y002775D01*
X009345Y002848D01*
X009308Y002923D01*
X009275Y003000D01*
X009246Y003078D01*
X009221Y003157D01*
X009199Y003237D01*
X009182Y003319D01*
X009168Y003401D01*
X009158Y003484D01*
X009152Y003567D01*
X009150Y003650D01*
X010900Y003900D02*
X010900Y004100D01*
X008520Y005135D02*
X007986Y005135D01*
X007879Y005242D01*
X009950Y006750D02*
X010200Y006500D01*
X010700Y006500D01*
X010950Y006750D01*
X010950Y007250D01*
X010700Y007500D01*
X010950Y007750D01*
X010950Y008250D01*
X010700Y008500D01*
X010200Y008500D01*
X009950Y008250D01*
X009950Y007750D01*
X010200Y007500D01*
X010700Y007500D01*
X010200Y007500D02*
X009950Y007250D01*
X009950Y006750D01*
X010200Y009300D02*
X009950Y009550D01*
X009950Y010050D01*
X010200Y010300D01*
X009950Y010550D01*
X009950Y011050D01*
X010200Y011300D01*
X010700Y011300D01*
X010950Y011050D01*
X010950Y010550D01*
X010700Y010300D01*
X010950Y010050D01*
X010950Y009550D01*
X010700Y009300D01*
X010200Y009300D01*
X010200Y010300D02*
X010700Y010300D01*
X007200Y010850D02*
X007200Y011650D01*
X007198Y011667D01*
X007194Y011684D01*
X007187Y011700D01*
X007177Y011714D01*
X007164Y011727D01*
X007150Y011737D01*
X007134Y011744D01*
X007117Y011748D01*
X007100Y011750D01*
X004400Y011750D01*
X004383Y011748D01*
X004366Y011744D01*
X004350Y011737D01*
X004336Y011727D01*
X004323Y011714D01*
X004313Y011700D01*
X004306Y011684D01*
X004302Y011667D01*
X004300Y011650D01*
X004300Y010850D01*
X004302Y010833D01*
X004306Y010816D01*
X004313Y010800D01*
X004323Y010786D01*
X004336Y010773D01*
X004350Y010763D01*
X004366Y010756D01*
X004383Y010752D01*
X004400Y010750D01*
X007100Y010750D01*
X007117Y010752D01*
X007134Y010756D01*
X007150Y010763D01*
X007164Y010773D01*
X007177Y010786D01*
X007187Y010800D01*
X007194Y010816D01*
X007198Y010833D01*
X007200Y010850D01*
X006750Y010450D02*
X006000Y010450D01*
X005998Y010411D01*
X005992Y010372D01*
X005983Y010334D01*
X005970Y010297D01*
X005953Y010261D01*
X005933Y010228D01*
X005909Y010196D01*
X005883Y010167D01*
X005854Y010141D01*
X005822Y010117D01*
X005789Y010097D01*
X005753Y010080D01*
X005716Y010067D01*
X005678Y010058D01*
X005639Y010052D01*
X005600Y010050D01*
X005561Y010052D01*
X005522Y010058D01*
X005484Y010067D01*
X005447Y010080D01*
X005411Y010097D01*
X005378Y010117D01*
X005346Y010141D01*
X005317Y010167D01*
X005291Y010196D01*
X005267Y010228D01*
X005247Y010261D01*
X005230Y010297D01*
X005217Y010334D01*
X005208Y010372D01*
X005202Y010411D01*
X005200Y010450D01*
X004450Y010450D01*
X004450Y003450D01*
X006750Y003450D01*
X006750Y010450D01*
X006350Y011250D02*
X005880Y011250D01*
X005630Y011250D02*
X005150Y011250D01*
X002600Y011050D02*
X002600Y010550D01*
X002350Y010300D01*
X002600Y010050D01*
X002600Y009550D01*
X002350Y009300D01*
X001850Y009300D01*
X001600Y009550D01*
X001600Y010050D01*
X001850Y010300D01*
X001600Y010550D01*
X001600Y011050D01*
X001850Y011300D01*
X002350Y011300D01*
X002600Y011050D01*
X002350Y011300D02*
X002600Y011550D01*
X002600Y012050D01*
X002350Y012300D01*
X002600Y012550D01*
X002600Y013050D01*
X002350Y013300D01*
X001850Y013300D01*
X001600Y013050D01*
X001600Y012550D01*
X001850Y012300D01*
X002350Y012300D01*
X001850Y012300D02*
X001600Y012050D01*
X001600Y011550D01*
X001850Y011300D01*
X001850Y010300D02*
X002350Y010300D01*
X002250Y006900D02*
X001750Y006900D01*
X001500Y006650D01*
X001500Y006150D01*
X001750Y005900D01*
X002250Y005900D01*
X002500Y006150D01*
X002500Y006650D01*
X002250Y006900D01*
X002250Y005900D02*
X002500Y005650D01*
X002500Y005150D01*
X002250Y004900D01*
X002500Y004650D01*
X002500Y004150D01*
X002250Y003900D01*
X002500Y003650D01*
X002500Y003150D01*
X002250Y002900D01*
X001750Y002900D01*
X001500Y003150D01*
X001500Y003650D01*
X001750Y003900D01*
X001500Y004150D01*
X001500Y004650D01*
X001750Y004900D01*
X002250Y004900D01*
X001750Y004900D02*
X001500Y005150D01*
X001500Y005650D01*
X001750Y005900D01*
X001750Y003900D02*
X002250Y003900D01*
X012550Y001800D02*
X012550Y001300D01*
X012800Y001050D01*
X013300Y001050D01*
X013550Y001300D01*
X013800Y001050D01*
X014300Y001050D01*
X014550Y001300D01*
X014550Y001800D01*
X014300Y002050D01*
X013800Y002050D01*
X013550Y001800D01*
X013550Y001300D01*
X013550Y001800D02*
X013300Y002050D01*
X012800Y002050D01*
X012550Y001800D01*
X014550Y001800D02*
X014800Y002050D01*
X015300Y002050D01*
X015550Y001800D01*
X015800Y002050D01*
X016300Y002050D01*
X016550Y001800D01*
X016800Y002050D01*
X017300Y002050D01*
X017550Y001800D01*
X017800Y002050D01*
X018300Y002050D01*
X018550Y001800D01*
X018550Y001300D01*
X018300Y001050D01*
X017800Y001050D01*
X017550Y001300D01*
X017300Y001050D01*
X016800Y001050D01*
X016550Y001300D01*
X016300Y001050D01*
X015800Y001050D01*
X015550Y001300D01*
X015300Y001050D01*
X014800Y001050D01*
X014550Y001300D01*
X015550Y001300D02*
X015550Y001800D01*
X016550Y001800D02*
X016550Y001300D01*
X017550Y001300D02*
X017550Y001800D01*
X019550Y001800D02*
X019550Y001300D01*
X019800Y001050D01*
X020300Y001050D01*
X020550Y001300D01*
X020800Y001050D01*
X021300Y001050D01*
X021550Y001300D01*
X021550Y001800D01*
X021300Y002050D01*
X020800Y002050D01*
X020550Y001800D01*
X020550Y001300D01*
X020550Y001800D02*
X020300Y002050D01*
X019800Y002050D01*
X019550Y001800D01*
X021550Y001800D02*
X021800Y002050D01*
X022300Y002050D01*
X022550Y001800D01*
X022800Y002050D01*
X023300Y002050D01*
X023550Y001800D01*
X023800Y002050D01*
X024300Y002050D01*
X024550Y001800D01*
X024550Y001300D01*
X024300Y001050D01*
X023800Y001050D01*
X023550Y001300D01*
X023300Y001050D01*
X022800Y001050D01*
X022550Y001300D01*
X022300Y001050D01*
X021800Y001050D01*
X021550Y001300D01*
X022550Y001300D02*
X022550Y001800D01*
X023550Y001800D02*
X023550Y001300D01*
X024550Y001300D02*
X024800Y001050D01*
X025300Y001050D01*
X025550Y001300D01*
X025800Y001050D01*
X026300Y001050D01*
X026550Y001300D01*
X026800Y001050D01*
X027300Y001050D01*
X027550Y001300D01*
X027550Y001800D01*
X027300Y002050D01*
X026800Y002050D01*
X026550Y001800D01*
X026550Y001300D01*
X026550Y001800D02*
X026300Y002050D01*
X025800Y002050D01*
X025550Y001800D01*
X025550Y001300D01*
X025550Y001800D02*
X025300Y002050D01*
X024800Y002050D01*
X024550Y001800D01*
X028550Y001800D02*
X028550Y001300D01*
X028800Y001050D01*
X029300Y001050D01*
X029550Y001300D01*
X029800Y001050D01*
X030300Y001050D01*
X030550Y001300D01*
X030550Y001800D01*
X030300Y002050D01*
X029800Y002050D01*
X029550Y001800D01*
X029550Y001300D01*
X029550Y001800D02*
X029300Y002050D01*
X028800Y002050D01*
X028550Y001800D01*
X030550Y001800D02*
X030800Y002050D01*
X031300Y002050D01*
X031550Y001800D01*
X031800Y002050D01*
X032300Y002050D01*
X032550Y001800D01*
X032800Y002050D01*
X033300Y002050D01*
X033550Y001800D01*
X033550Y001300D01*
X033300Y001050D01*
X032800Y001050D01*
X032550Y001300D01*
X032300Y001050D01*
X031800Y001050D01*
X031550Y001300D01*
X031300Y001050D01*
X030800Y001050D01*
X030550Y001300D01*
X031550Y001300D02*
X031550Y001800D01*
X032550Y001800D02*
X032550Y001300D01*
X033550Y001300D02*
X033800Y001050D01*
X034300Y001050D01*
X034550Y001300D01*
X034800Y001050D01*
X035300Y001050D01*
X035550Y001300D01*
X035800Y001050D01*
X036300Y001050D01*
X036550Y001300D01*
X036550Y001800D01*
X036300Y002050D01*
X035800Y002050D01*
X035550Y001800D01*
X035550Y001300D01*
X035550Y001800D02*
X035300Y002050D01*
X034800Y002050D01*
X034550Y001800D01*
X034550Y001300D01*
X034550Y001800D02*
X034300Y002050D01*
X033800Y002050D01*
X033550Y001800D01*
X031320Y002430D02*
X031320Y002764D01*
X031320Y002597D02*
X030820Y002597D01*
X030986Y002430D01*
X030903Y002946D02*
X030820Y003029D01*
X030820Y003196D01*
X030903Y003279D01*
X031237Y002946D01*
X031320Y003029D01*
X031320Y003196D01*
X031237Y003279D01*
X030903Y003279D01*
X030903Y002946D02*
X031237Y002946D01*
X029500Y003850D02*
X029500Y004350D01*
X029250Y004600D01*
X029500Y004850D01*
X029500Y005350D01*
X029250Y005600D01*
X029500Y005850D01*
X029500Y006350D01*
X029250Y006600D01*
X028750Y006600D01*
X028500Y006350D01*
X028500Y005850D01*
X028750Y005600D01*
X029250Y005600D01*
X028750Y005600D02*
X028500Y005350D01*
X028500Y004850D01*
X028750Y004600D01*
X029250Y004600D01*
X028750Y004600D02*
X028500Y004350D01*
X028500Y003850D01*
X028750Y003600D01*
X029250Y003600D01*
X029500Y003850D01*
X032050Y004200D02*
X032300Y003950D01*
X032800Y003950D01*
X033050Y004200D01*
X033050Y004700D01*
X032800Y004950D01*
X033050Y005200D01*
X033050Y005700D01*
X032800Y005950D01*
X033050Y006200D01*
X033050Y006700D01*
X032800Y006950D01*
X032300Y006950D01*
X032050Y006700D01*
X032050Y006200D01*
X032300Y005950D01*
X032800Y005950D01*
X032300Y005950D02*
X032050Y005700D01*
X032050Y005200D01*
X032300Y004950D01*
X032800Y004950D01*
X032300Y004950D02*
X032050Y004700D01*
X032050Y004200D01*
X034000Y004200D02*
X034250Y003950D01*
X034750Y003950D01*
X035000Y004200D01*
X035000Y004700D01*
X034750Y004950D01*
X035000Y005200D01*
X035000Y005700D01*
X034750Y005950D01*
X035000Y006200D01*
X035000Y006700D01*
X034750Y006950D01*
X034250Y006950D01*
X034000Y006700D01*
X034000Y006200D01*
X034250Y005950D01*
X034750Y005950D01*
X034250Y005950D02*
X034000Y005700D01*
X034000Y005200D01*
X034250Y004950D01*
X034750Y004950D01*
X034250Y004950D02*
X034000Y004700D01*
X034000Y004200D01*
X036550Y004300D02*
X036550Y004800D01*
X036800Y005050D01*
X038300Y005050D01*
X038550Y005300D01*
X038550Y005800D01*
X038300Y006050D01*
X036800Y006050D01*
X036550Y006300D01*
X036550Y006800D01*
X036800Y007050D01*
X038300Y007050D01*
X038550Y007300D01*
X038550Y007800D01*
X038300Y008050D01*
X036800Y008050D01*
X036550Y008300D01*
X036550Y008800D01*
X036800Y009050D01*
X038300Y009050D01*
X038550Y009300D01*
X038550Y009800D01*
X038300Y010050D01*
X036800Y010050D01*
X036550Y010300D01*
X036550Y010800D01*
X036800Y011050D01*
X036550Y011300D01*
X036550Y011800D01*
X036800Y012050D01*
X038300Y012050D01*
X038550Y011800D01*
X038550Y011300D01*
X038300Y011050D01*
X036800Y011050D01*
X036800Y012050D02*
X036550Y012300D01*
X036550Y012800D01*
X036800Y013050D01*
X038300Y013050D01*
X038550Y013300D01*
X038550Y013800D01*
X038300Y014050D01*
X036800Y014050D01*
X036550Y014300D01*
X036550Y014800D01*
X036800Y015050D01*
X038300Y015050D01*
X038550Y015300D01*
X038550Y015800D01*
X038300Y016050D01*
X036800Y016050D01*
X036550Y016300D01*
X036550Y016800D01*
X036800Y017050D01*
X038300Y017050D01*
X038550Y017300D01*
X038550Y017800D01*
X038300Y018050D01*
X036800Y018050D01*
X036550Y018300D01*
X036550Y018800D01*
X036800Y019050D01*
X036550Y019300D01*
X036550Y019800D01*
X036800Y020050D01*
X037300Y020050D01*
X037550Y020300D01*
X037800Y020050D01*
X038300Y020050D01*
X038550Y020300D01*
X038550Y020800D01*
X038300Y021050D01*
X037800Y021050D01*
X037550Y020800D01*
X037550Y020300D01*
X037550Y020800D01*
X037300Y021050D01*
X036800Y021050D01*
X036550Y020800D01*
X036550Y020300D01*
X036800Y020050D01*
X038300Y020050D01*
X038550Y019800D01*
X038550Y019300D01*
X038300Y019050D01*
X036800Y019050D01*
X038300Y019050D02*
X038550Y018800D01*
X038550Y018300D01*
X038300Y018050D01*
X038300Y017050D02*
X038550Y016800D01*
X038550Y016300D01*
X038300Y016050D01*
X036800Y016050D02*
X036550Y015800D01*
X036550Y015300D01*
X036800Y015050D01*
X036800Y014050D02*
X036550Y013800D01*
X036550Y013300D01*
X036800Y013050D01*
X038300Y013050D02*
X038550Y012800D01*
X038550Y012300D01*
X038300Y012050D01*
X036800Y012050D01*
X038300Y011050D02*
X038550Y010800D01*
X038550Y010300D01*
X038300Y010050D01*
X038300Y009050D02*
X038550Y008800D01*
X038550Y008300D01*
X038300Y008050D01*
X036800Y008050D02*
X036550Y007800D01*
X036550Y007300D01*
X036800Y007050D01*
X036800Y006050D02*
X036550Y005800D01*
X036550Y005300D01*
X036800Y005050D01*
X036550Y004300D02*
X036800Y004050D01*
X036550Y003800D01*
X036550Y003300D01*
X036800Y003050D01*
X037300Y003050D01*
X037550Y003300D01*
X037800Y003050D01*
X038300Y003050D01*
X038550Y003300D01*
X038550Y003800D01*
X038300Y004050D01*
X037800Y004050D01*
X037550Y003800D01*
X037550Y003300D01*
X037550Y003800D01*
X037300Y004050D01*
X036800Y004050D01*
X038300Y004050D01*
X038550Y004300D01*
X038550Y004800D01*
X038300Y005050D01*
X038300Y006050D02*
X038550Y006300D01*
X038550Y006800D01*
X038300Y007050D01*
X036800Y009050D02*
X036550Y009300D01*
X036550Y009800D01*
X036800Y010050D01*
X033150Y011150D02*
X033150Y011650D01*
X032900Y011900D01*
X033150Y012150D01*
X033150Y012650D01*
X032900Y012900D01*
X032400Y012900D01*
X032150Y012650D01*
X032150Y012150D01*
X032400Y011900D01*
X032900Y011900D01*
X032400Y011900D02*
X032150Y011650D01*
X032150Y011150D01*
X032400Y010900D01*
X032900Y010900D01*
X033150Y011150D01*
X031250Y010700D02*
X031200Y010750D01*
X031200Y012650D01*
X031250Y012700D01*
X031250Y012850D01*
X031248Y012867D01*
X031244Y012884D01*
X031237Y012900D01*
X031227Y012914D01*
X031214Y012927D01*
X031200Y012937D01*
X031184Y012944D01*
X031167Y012948D01*
X031150Y012950D01*
X030450Y012950D01*
X030433Y012948D01*
X030416Y012944D01*
X030400Y012937D01*
X030386Y012927D01*
X030373Y012914D01*
X030363Y012900D01*
X030356Y012884D01*
X030352Y012867D01*
X030350Y012850D01*
X030350Y012700D01*
X030400Y012650D01*
X030400Y010750D01*
X030350Y010700D01*
X030350Y010550D01*
X030352Y010533D01*
X030356Y010516D01*
X030363Y010500D01*
X030373Y010486D01*
X030386Y010473D01*
X030400Y010463D01*
X030416Y010456D01*
X030433Y010452D01*
X030450Y010450D01*
X031150Y010450D01*
X031167Y010452D01*
X031184Y010456D01*
X031200Y010463D01*
X031214Y010473D01*
X031227Y010486D01*
X031237Y010500D01*
X031244Y010516D01*
X031248Y010533D01*
X031250Y010550D01*
X031250Y010700D01*
X029450Y010350D02*
X029450Y009850D01*
X029200Y009600D01*
X029450Y009350D01*
X029450Y008850D01*
X029200Y008600D01*
X029450Y008350D01*
X029450Y007850D01*
X029200Y007600D01*
X028700Y007600D01*
X028450Y007850D01*
X028450Y008350D01*
X028700Y008600D01*
X028450Y008850D01*
X028450Y009350D01*
X028700Y009600D01*
X028450Y009850D01*
X028450Y010350D01*
X028700Y010600D01*
X029200Y010600D01*
X029450Y010350D01*
X029200Y009600D02*
X028700Y009600D01*
X028700Y008600D02*
X029200Y008600D01*
X027350Y008500D02*
X027350Y008350D01*
X027300Y008300D01*
X027300Y006400D01*
X027350Y006350D01*
X027350Y006200D01*
X027348Y006183D01*
X027344Y006166D01*
X027337Y006150D01*
X027327Y006136D01*
X027314Y006123D01*
X027300Y006113D01*
X027284Y006106D01*
X027267Y006102D01*
X027250Y006100D01*
X026550Y006100D01*
X026533Y006102D01*
X026516Y006106D01*
X026500Y006113D01*
X026486Y006123D01*
X026473Y006136D01*
X026463Y006150D01*
X026456Y006166D01*
X026452Y006183D01*
X026450Y006200D01*
X026450Y006350D01*
X026500Y006400D01*
X026500Y008300D01*
X026450Y008350D01*
X026450Y008500D01*
X026452Y008517D01*
X026456Y008534D01*
X026463Y008550D01*
X026473Y008564D01*
X026486Y008577D01*
X026500Y008587D01*
X026516Y008594D01*
X026533Y008598D01*
X026550Y008600D01*
X027250Y008600D01*
X027267Y008598D01*
X027284Y008594D01*
X027300Y008587D01*
X027314Y008577D01*
X027327Y008564D01*
X027337Y008550D01*
X027344Y008534D01*
X027348Y008517D01*
X027350Y008500D01*
X026200Y008500D02*
X026200Y008350D01*
X026150Y008300D01*
X026150Y006400D01*
X026200Y006350D01*
X026200Y006200D01*
X026198Y006183D01*
X026194Y006166D01*
X026187Y006150D01*
X026177Y006136D01*
X026164Y006123D01*
X026150Y006113D01*
X026134Y006106D01*
X026117Y006102D01*
X026100Y006100D01*
X025400Y006100D01*
X025383Y006102D01*
X025366Y006106D01*
X025350Y006113D01*
X025336Y006123D01*
X025323Y006136D01*
X025313Y006150D01*
X025306Y006166D01*
X025302Y006183D01*
X025300Y006200D01*
X025300Y006350D01*
X025350Y006400D01*
X025350Y008300D01*
X025300Y008350D01*
X025300Y008500D01*
X025302Y008517D01*
X025306Y008534D01*
X025313Y008550D01*
X025323Y008564D01*
X025336Y008577D01*
X025350Y008587D01*
X025366Y008594D01*
X025383Y008598D01*
X025400Y008600D01*
X026100Y008600D01*
X026117Y008598D01*
X026134Y008594D01*
X026150Y008587D01*
X026164Y008577D01*
X026177Y008564D01*
X026187Y008550D01*
X026194Y008534D01*
X026198Y008517D01*
X026200Y008500D01*
X032150Y013150D02*
X032400Y012900D01*
X032150Y013150D02*
X032150Y013650D01*
X032400Y013900D01*
X032150Y014150D01*
X032150Y014650D01*
X032400Y014900D01*
X032900Y014900D01*
X033150Y014650D01*
X033150Y014150D01*
X032900Y013900D01*
X033150Y013650D01*
X033150Y013150D01*
X032900Y012900D01*
X032900Y013900D02*
X032400Y013900D01*
X031150Y015300D02*
X030450Y015300D01*
X030433Y015302D01*
X030416Y015306D01*
X030400Y015313D01*
X030386Y015323D01*
X030373Y015336D01*
X030363Y015350D01*
X030356Y015366D01*
X030352Y015383D01*
X030350Y015400D01*
X030350Y015550D01*
X030400Y015600D01*
X030400Y017500D01*
X030350Y017550D01*
X030350Y017700D01*
X030352Y017717D01*
X030356Y017734D01*
X030363Y017750D01*
X030373Y017764D01*
X030386Y017777D01*
X030400Y017787D01*
X030416Y017794D01*
X030433Y017798D01*
X030450Y017800D01*
X031150Y017800D01*
X031167Y017798D01*
X031184Y017794D01*
X031200Y017787D01*
X031214Y017777D01*
X031227Y017764D01*
X031237Y017750D01*
X031244Y017734D01*
X031248Y017717D01*
X031250Y017700D01*
X031250Y017550D01*
X031200Y017500D01*
X031200Y015600D01*
X031250Y015550D01*
X031250Y015400D01*
X031248Y015383D01*
X031244Y015366D01*
X031237Y015350D01*
X031227Y015336D01*
X031214Y015323D01*
X031200Y015313D01*
X031184Y015306D01*
X031167Y015302D01*
X031150Y015300D01*
X036550Y017300D02*
X036550Y017800D01*
X036800Y018050D01*
X036550Y017300D02*
X036800Y017050D01*
X038300Y015050D02*
X038550Y014800D01*
X038550Y014300D01*
X038300Y014050D01*
X034300Y020050D02*
X033800Y020050D01*
X033550Y020300D01*
X033300Y020050D01*
X032800Y020050D01*
X032550Y020300D01*
X032550Y020800D01*
X032800Y021050D01*
X033300Y021050D01*
X033550Y020800D01*
X033800Y021050D01*
X034300Y021050D01*
X034550Y020800D01*
X034550Y020300D01*
X034300Y020050D01*
X033550Y020300D02*
X033550Y020800D01*
X032550Y020800D02*
X032300Y021050D01*
X031800Y021050D01*
X031550Y020800D01*
X031300Y021050D01*
X030800Y021050D01*
X030550Y020800D01*
X030300Y021050D01*
X029800Y021050D01*
X029550Y020800D01*
X029550Y020300D01*
X029800Y020050D01*
X030300Y020050D01*
X030550Y020300D01*
X030550Y020800D01*
X030550Y020300D02*
X030800Y020050D01*
X031300Y020050D01*
X031550Y020300D01*
X031550Y020800D01*
X031550Y020300D02*
X031800Y020050D01*
X032300Y020050D01*
X032550Y020300D01*
X029550Y020300D02*
X029300Y020050D01*
X028800Y020050D01*
X028550Y020300D01*
X028300Y020050D01*
X027800Y020050D01*
X027550Y020300D01*
X027300Y020050D01*
X026800Y020050D01*
X026550Y020300D01*
X026550Y020800D01*
X026800Y021050D01*
X027300Y021050D01*
X027550Y020800D01*
X027800Y021050D01*
X028300Y021050D01*
X028550Y020800D01*
X028800Y021050D01*
X029300Y021050D01*
X029550Y020800D01*
X028550Y020800D02*
X028550Y020300D01*
X027550Y020300D02*
X027550Y020800D01*
X016950Y017450D02*
X016950Y016950D01*
X016700Y016700D01*
X016950Y016450D01*
X016950Y015950D01*
X016700Y015700D01*
X016200Y015700D01*
X015950Y015950D01*
X015950Y016450D01*
X016200Y016700D01*
X015950Y016950D01*
X015950Y017450D01*
X016200Y017700D01*
X016700Y017700D01*
X016950Y017450D01*
X016700Y016700D02*
X016200Y016700D01*
X004800Y015600D02*
X004800Y015100D01*
X004550Y014850D01*
X004050Y014850D01*
X003800Y015100D01*
X003550Y014850D01*
X003050Y014850D01*
X002800Y015100D01*
X002550Y014850D01*
X002050Y014850D01*
X001800Y015100D01*
X001550Y014850D01*
X001050Y014850D01*
X000800Y015100D01*
X000800Y015600D01*
X001050Y015850D01*
X001550Y015850D01*
X001800Y015600D01*
X002050Y015850D01*
X002550Y015850D01*
X002800Y015600D01*
X002800Y015100D01*
X002800Y015600D02*
X003050Y015850D01*
X003550Y015850D01*
X003800Y015600D01*
X004050Y015850D01*
X004550Y015850D01*
X004800Y015600D01*
X003800Y015600D02*
X003800Y015100D01*
X001800Y015100D02*
X001800Y015600D01*
X014450Y004650D02*
X017150Y004650D01*
X017167Y004648D01*
X017184Y004644D01*
X017200Y004637D01*
X017214Y004627D01*
X017227Y004614D01*
X017237Y004600D01*
X017244Y004584D01*
X017248Y004567D01*
X017250Y004550D01*
X017250Y003750D01*
X017248Y003733D01*
X017244Y003716D01*
X017237Y003700D01*
X017227Y003686D01*
X017214Y003673D01*
X017200Y003663D01*
X017184Y003656D01*
X017167Y003652D01*
X017150Y003650D01*
X014450Y003650D01*
X014433Y003652D01*
X014416Y003656D01*
X014400Y003663D01*
X014386Y003673D01*
X014373Y003686D01*
X014363Y003700D01*
X014356Y003716D01*
X014352Y003733D01*
X014350Y003750D01*
X014350Y004550D01*
X014352Y004567D01*
X014356Y004584D01*
X014363Y004600D01*
X014373Y004614D01*
X014386Y004627D01*
X014400Y004637D01*
X014416Y004644D01*
X014433Y004648D01*
X014450Y004650D01*
X015200Y004150D02*
X015680Y004150D01*
X015930Y004150D02*
X016400Y004150D01*
D16*
X036085Y021063D02*
X036143Y021005D01*
X036260Y021005D01*
X036318Y021063D01*
X036318Y021180D01*
X036260Y021239D01*
X036201Y021239D01*
X036085Y021180D01*
X036085Y021355D01*
X036318Y021355D01*
X036490Y021355D02*
X036490Y021122D01*
X036607Y021005D01*
X036723Y021122D01*
X036723Y021355D01*
D17*
X028065Y017100D02*
X027990Y017175D01*
X027840Y017175D01*
X027765Y017100D01*
X027604Y017100D02*
X027604Y016950D01*
X027529Y016875D01*
X027304Y016875D01*
X027304Y016725D02*
X027304Y017175D01*
X027529Y017175D01*
X027604Y017100D01*
X027454Y016875D02*
X027604Y016725D01*
X027765Y016725D02*
X028065Y017025D01*
X028065Y017100D01*
X028065Y016725D02*
X027765Y016725D01*
X029725Y016061D02*
X029725Y015910D01*
X029800Y015835D01*
X029800Y015675D02*
X029950Y015675D01*
X030025Y015600D01*
X030025Y015375D01*
X030175Y015375D02*
X029725Y015375D01*
X029725Y015600D01*
X029800Y015675D01*
X030025Y015525D02*
X030175Y015675D01*
X030100Y015835D02*
X030175Y015910D01*
X030175Y016061D01*
X030100Y016136D01*
X030025Y016136D01*
X029950Y016061D01*
X029950Y015986D01*
X029950Y016061D02*
X029875Y016136D01*
X029800Y016136D01*
X029725Y016061D01*
X031455Y013958D02*
X031530Y013807D01*
X031680Y013657D01*
X031680Y013883D01*
X031755Y013958D01*
X031830Y013958D01*
X031905Y013883D01*
X031905Y013732D01*
X031830Y013657D01*
X031680Y013657D01*
X031530Y013497D02*
X031830Y013497D01*
X031905Y013422D01*
X031905Y013272D01*
X031830Y013197D01*
X031530Y013497D01*
X031455Y013422D01*
X031455Y013272D01*
X031530Y013197D01*
X031830Y013197D01*
X031830Y013037D02*
X031905Y012962D01*
X031905Y012812D01*
X031830Y012737D01*
X031530Y012737D01*
X031455Y012812D01*
X031455Y012962D01*
X031530Y013037D01*
X031455Y012576D02*
X031905Y012576D01*
X031680Y012576D02*
X031680Y012276D01*
X031905Y012276D02*
X031455Y012276D01*
X031980Y012116D02*
X031980Y011816D01*
X031905Y011506D02*
X031455Y011506D01*
X031455Y011656D02*
X031455Y011355D01*
X031530Y011195D02*
X031605Y011195D01*
X031680Y011120D01*
X031680Y010895D01*
X031905Y010895D02*
X031455Y010895D01*
X031455Y011120D01*
X031530Y011195D01*
X031680Y011120D02*
X031755Y011195D01*
X031830Y011195D01*
X031905Y011120D01*
X031905Y010895D01*
X030175Y010825D02*
X030025Y010675D01*
X030025Y010750D02*
X030025Y010525D01*
X030175Y010525D02*
X029725Y010525D01*
X029725Y010750D01*
X029800Y010825D01*
X029950Y010825D01*
X030025Y010750D01*
X029950Y010985D02*
X029950Y011286D01*
X030175Y011211D02*
X029725Y011211D01*
X029950Y010985D01*
X028205Y010197D02*
X027755Y009897D01*
X027830Y009737D02*
X027755Y009662D01*
X027755Y009437D01*
X028205Y009437D01*
X028205Y009662D01*
X028130Y009737D01*
X027830Y009737D01*
X028205Y009897D02*
X027755Y010197D01*
X028280Y009276D02*
X028280Y008976D01*
X028130Y008816D02*
X028205Y008741D01*
X028205Y008591D01*
X028130Y008516D01*
X027830Y008516D01*
X027755Y008591D01*
X027755Y008741D01*
X027830Y008816D01*
X027755Y008356D02*
X028205Y008356D01*
X027755Y008055D01*
X028205Y008055D01*
X028205Y007895D02*
X028205Y007595D01*
X027755Y007595D01*
X027755Y007895D01*
X027980Y007745D02*
X027980Y007595D01*
X026275Y007321D02*
X026275Y007171D01*
X026200Y007096D01*
X025900Y007396D01*
X026200Y007396D01*
X026275Y007321D01*
X026200Y007096D02*
X025900Y007096D01*
X025825Y007171D01*
X025825Y007321D01*
X025900Y007396D01*
X026275Y006936D02*
X026275Y006635D01*
X026275Y006786D02*
X025825Y006786D01*
X025975Y006635D01*
X026050Y006475D02*
X026125Y006400D01*
X026125Y006175D01*
X026275Y006175D02*
X025825Y006175D01*
X025825Y006400D01*
X025900Y006475D01*
X026050Y006475D01*
X026125Y006325D02*
X026275Y006475D01*
X025125Y006475D02*
X024975Y006325D01*
X024975Y006400D02*
X024975Y006175D01*
X025125Y006175D02*
X024675Y006175D01*
X024675Y006400D01*
X024750Y006475D01*
X024900Y006475D01*
X024975Y006400D01*
X025125Y006635D02*
X025125Y006936D01*
X025125Y006786D02*
X024675Y006786D01*
X024825Y006635D01*
X024825Y007096D02*
X024675Y007246D01*
X025125Y007246D01*
X025125Y007096D02*
X025125Y007396D01*
X027805Y006197D02*
X028255Y005897D01*
X028180Y005737D02*
X028255Y005662D01*
X028255Y005512D01*
X028180Y005437D01*
X028030Y005512D02*
X027955Y005437D01*
X027880Y005437D01*
X027805Y005512D01*
X027805Y005662D01*
X027880Y005737D01*
X028030Y005662D02*
X028105Y005737D01*
X028180Y005737D01*
X028030Y005662D02*
X028030Y005512D01*
X028330Y005276D02*
X028330Y004976D01*
X028180Y004816D02*
X028255Y004741D01*
X028255Y004591D01*
X028180Y004516D01*
X027880Y004516D01*
X027805Y004591D01*
X027805Y004741D01*
X027880Y004816D01*
X027805Y004356D02*
X028255Y004356D01*
X027805Y004055D01*
X028255Y004055D01*
X028255Y003895D02*
X028255Y003595D01*
X027805Y003595D01*
X027805Y003895D01*
X028030Y003745D02*
X028030Y003595D01*
X031355Y004020D02*
X031430Y003945D01*
X031505Y003945D01*
X031580Y004020D01*
X031580Y004170D01*
X031655Y004245D01*
X031730Y004245D01*
X031805Y004170D01*
X031805Y004020D01*
X031730Y003945D01*
X031355Y004020D02*
X031355Y004170D01*
X031430Y004245D01*
X031355Y004405D02*
X031355Y004631D01*
X031430Y004706D01*
X031580Y004706D01*
X031655Y004631D01*
X031655Y004405D01*
X031805Y004405D02*
X031355Y004405D01*
X031655Y004556D02*
X031805Y004706D01*
X031655Y004866D02*
X031355Y004866D01*
X031655Y004866D02*
X031805Y005016D01*
X031655Y005166D01*
X031355Y005166D01*
X031880Y005326D02*
X031880Y005626D01*
X031805Y005787D02*
X031355Y005787D01*
X031355Y006012D01*
X031430Y006087D01*
X031580Y006087D01*
X031655Y006012D01*
X031655Y005787D01*
X031580Y006247D02*
X031580Y006547D01*
X031505Y006547D02*
X031805Y006547D01*
X031805Y006707D02*
X031355Y006707D01*
X031805Y007008D01*
X031355Y007008D01*
X031505Y006547D02*
X031355Y006397D01*
X031505Y006247D01*
X031805Y006247D01*
X033305Y006247D02*
X033305Y006397D01*
X033305Y006322D02*
X033755Y006322D01*
X033755Y006247D02*
X033755Y006397D01*
X033755Y006554D02*
X033305Y006554D01*
X033755Y006554D02*
X033755Y006854D01*
X033305Y007014D02*
X033305Y007315D01*
X033305Y007164D02*
X033755Y007164D01*
X033305Y006087D02*
X033305Y005787D01*
X033305Y005937D02*
X033755Y005937D01*
X033830Y005626D02*
X033830Y005326D01*
X033605Y005166D02*
X033305Y005166D01*
X033605Y005166D02*
X033755Y005016D01*
X033605Y004866D01*
X033305Y004866D01*
X033380Y004706D02*
X033530Y004706D01*
X033605Y004631D01*
X033605Y004405D01*
X033755Y004405D02*
X033305Y004405D01*
X033305Y004631D01*
X033380Y004706D01*
X033605Y004556D02*
X033755Y004706D01*
X033680Y004245D02*
X033755Y004170D01*
X033755Y004020D01*
X033680Y003945D01*
X033530Y004020D02*
X033530Y004170D01*
X033605Y004245D01*
X033680Y004245D01*
X033530Y004020D02*
X033455Y003945D01*
X033380Y003945D01*
X033305Y004020D01*
X033305Y004170D01*
X033380Y004245D01*
X028255Y006197D02*
X027805Y005897D01*
X022093Y010475D02*
X021792Y010475D01*
X022093Y010775D01*
X022093Y010850D01*
X022018Y010925D01*
X021867Y010925D01*
X021792Y010850D01*
X021632Y010850D02*
X021557Y010925D01*
X021407Y010925D01*
X021332Y010850D01*
X021332Y010550D01*
X021407Y010475D01*
X021557Y010475D01*
X021632Y010550D01*
X021175Y010475D02*
X021025Y010475D01*
X021100Y010475D02*
X021100Y010925D01*
X021025Y010925D02*
X021175Y010925D01*
X021100Y012025D02*
X021175Y012100D01*
X021100Y012025D02*
X020950Y012025D01*
X020875Y012100D01*
X020875Y012400D01*
X020950Y012475D01*
X021100Y012475D01*
X021175Y012400D01*
X021335Y012400D02*
X021410Y012475D01*
X021561Y012475D01*
X021636Y012400D01*
X021636Y012325D01*
X021561Y012250D01*
X021636Y012175D01*
X021636Y012100D01*
X021561Y012025D01*
X021410Y012025D01*
X021335Y012100D01*
X021486Y012250D02*
X021561Y012250D01*
X024904Y012975D02*
X024904Y013425D01*
X025129Y013425D01*
X025204Y013350D01*
X025204Y013200D01*
X025129Y013125D01*
X024904Y013125D01*
X025054Y013125D02*
X025204Y012975D01*
X025365Y013050D02*
X025440Y012975D01*
X025590Y012975D01*
X025665Y013050D01*
X025665Y013350D01*
X025590Y013425D01*
X025440Y013425D01*
X025365Y013350D01*
X025365Y013275D01*
X025440Y013200D01*
X025665Y013200D01*
X025540Y014175D02*
X025390Y014175D01*
X025315Y014250D01*
X025315Y014325D01*
X025390Y014400D01*
X025540Y014400D01*
X025615Y014325D01*
X025615Y014250D01*
X025540Y014175D01*
X025540Y014400D02*
X025615Y014475D01*
X025615Y014550D01*
X025540Y014625D01*
X025390Y014625D01*
X025315Y014550D01*
X025315Y014475D01*
X025390Y014400D01*
X025154Y014400D02*
X025154Y014550D01*
X025079Y014625D01*
X024854Y014625D01*
X024854Y014175D01*
X024854Y014325D02*
X025079Y014325D01*
X025154Y014400D01*
X025004Y014325D02*
X025154Y014175D01*
X017425Y010335D02*
X017350Y010335D01*
X017050Y010636D01*
X016975Y010636D01*
X016975Y010335D01*
X017050Y010175D02*
X017200Y010175D01*
X017275Y010100D01*
X017275Y009875D01*
X017425Y009875D02*
X016975Y009875D01*
X016975Y010100D01*
X017050Y010175D01*
X017275Y010025D02*
X017425Y010175D01*
X017100Y007000D02*
X016600Y006500D01*
X012100Y006500D01*
X012100Y014500D01*
X017100Y014500D01*
X017100Y007000D01*
X017100Y006500D01*
X016600Y006500D01*
X015161Y005275D02*
X014935Y005050D01*
X015236Y005050D01*
X015161Y004825D02*
X015161Y005275D01*
X014775Y005200D02*
X014700Y005275D01*
X014550Y005275D01*
X014475Y005200D01*
X014475Y004900D01*
X014550Y004825D01*
X014700Y004825D01*
X014775Y004900D01*
X009975Y005380D02*
X009975Y005530D01*
X009900Y005605D01*
X009900Y005765D02*
X009975Y005840D01*
X009975Y005991D01*
X009900Y006066D01*
X009750Y006066D01*
X009675Y005991D01*
X009675Y005916D01*
X009750Y005765D01*
X009525Y005765D01*
X009525Y006066D01*
X009705Y006495D02*
X009255Y006495D01*
X009405Y006645D01*
X009255Y006795D01*
X009705Y006795D01*
X009705Y007106D02*
X009255Y007106D01*
X009255Y007256D02*
X009255Y006955D01*
X009255Y007416D02*
X009255Y007641D01*
X009330Y007716D01*
X009480Y007716D01*
X009555Y007641D01*
X009555Y007416D01*
X009555Y007566D02*
X009705Y007716D01*
X009780Y007876D02*
X009780Y008176D01*
X009705Y008337D02*
X009705Y008562D01*
X009630Y008637D01*
X009555Y008637D01*
X009480Y008562D01*
X009480Y008337D01*
X009480Y008562D02*
X009405Y008637D01*
X009330Y008637D01*
X009255Y008562D01*
X009255Y008337D01*
X009705Y008337D01*
X009705Y007416D02*
X009255Y007416D01*
X009600Y005605D02*
X009525Y005530D01*
X009525Y005380D01*
X009600Y005305D01*
X009900Y005305D01*
X009975Y005380D01*
X009705Y009295D02*
X009255Y009295D01*
X009405Y009445D01*
X009255Y009595D01*
X009705Y009595D01*
X009705Y009906D02*
X009255Y009906D01*
X009255Y010056D02*
X009255Y009755D01*
X009255Y010216D02*
X009255Y010441D01*
X009330Y010516D01*
X009480Y010516D01*
X009555Y010441D01*
X009555Y010216D01*
X009555Y010366D02*
X009705Y010516D01*
X009780Y010676D02*
X009780Y010976D01*
X009705Y011137D02*
X009405Y011137D01*
X009255Y011287D01*
X009405Y011437D01*
X009705Y011437D01*
X009480Y011437D02*
X009480Y011137D01*
X009705Y010216D02*
X009255Y010216D01*
X005493Y010625D02*
X005192Y010625D01*
X005342Y010625D02*
X005342Y011075D01*
X005192Y010925D01*
X005032Y011000D02*
X004957Y011075D01*
X004807Y011075D01*
X004732Y011000D01*
X004732Y010700D01*
X004807Y010625D01*
X004957Y010625D01*
X005032Y010700D01*
X004575Y010625D02*
X004425Y010625D01*
X004500Y010625D02*
X004500Y011075D01*
X004425Y011075D02*
X004575Y011075D01*
X004500Y011925D02*
X004425Y012000D01*
X004425Y012300D01*
X004500Y012375D01*
X004650Y012375D01*
X004725Y012300D01*
X004885Y012225D02*
X005036Y012375D01*
X005036Y011925D01*
X005186Y011925D02*
X004885Y011925D01*
X004725Y012000D02*
X004650Y011925D01*
X004500Y011925D01*
X001430Y011904D02*
X001430Y012204D01*
X001355Y012364D02*
X001355Y012514D01*
X001355Y012439D02*
X000905Y012439D01*
X000905Y012364D02*
X000905Y012514D01*
X000905Y012671D02*
X000905Y012896D01*
X000980Y012971D01*
X001130Y012971D01*
X001205Y012896D01*
X001205Y012671D01*
X001355Y012671D02*
X000905Y012671D01*
X001205Y012821D02*
X001355Y012971D01*
X001355Y011744D02*
X001355Y011443D01*
X000905Y011443D01*
X000905Y011744D01*
X001130Y011594D02*
X001130Y011443D01*
X001280Y011283D02*
X000980Y011283D01*
X000905Y011208D01*
X000905Y010983D01*
X001355Y010983D01*
X001355Y011208D01*
X001280Y011283D01*
X001355Y010826D02*
X001355Y010676D01*
X001355Y010751D02*
X000905Y010751D01*
X000905Y010676D02*
X000905Y010826D01*
X000980Y010516D02*
X000905Y010441D01*
X000905Y010291D01*
X000980Y010216D01*
X001055Y010216D01*
X001130Y010291D01*
X001130Y010441D01*
X001205Y010516D01*
X001280Y010516D01*
X001355Y010441D01*
X001355Y010291D01*
X001280Y010216D01*
X001430Y010056D02*
X001430Y009755D01*
X001355Y009595D02*
X001355Y009295D01*
X000905Y009295D01*
X000880Y006571D02*
X000805Y006496D01*
X000805Y006271D01*
X001255Y006271D01*
X001105Y006271D02*
X001105Y006496D01*
X001030Y006571D01*
X000880Y006571D01*
X001105Y006421D02*
X001255Y006571D01*
X001255Y006114D02*
X001255Y005964D01*
X001255Y006039D02*
X000805Y006039D01*
X000805Y005964D02*
X000805Y006114D01*
X001330Y005804D02*
X001330Y005504D01*
X001255Y005344D02*
X001255Y005043D01*
X000805Y005043D01*
X000805Y005344D01*
X001030Y005194D02*
X001030Y005043D01*
X001180Y004883D02*
X000880Y004883D01*
X000805Y004808D01*
X000805Y004583D01*
X001255Y004583D01*
X001255Y004808D01*
X001180Y004883D01*
X001255Y004426D02*
X001255Y004276D01*
X001255Y004351D02*
X000805Y004351D01*
X000805Y004276D02*
X000805Y004426D01*
X000880Y004116D02*
X000805Y004041D01*
X000805Y003891D01*
X000880Y003816D01*
X000955Y003816D01*
X001030Y003891D01*
X001030Y004041D01*
X001105Y004116D01*
X001180Y004116D01*
X001255Y004041D01*
X001255Y003891D01*
X001180Y003816D01*
X001330Y003656D02*
X001330Y003355D01*
X001255Y003195D02*
X001105Y003045D01*
X001105Y003120D02*
X001105Y002895D01*
X001255Y002895D02*
X000805Y002895D01*
X000805Y003120D01*
X000880Y003195D01*
X001030Y003195D01*
X001105Y003120D01*
X015255Y015695D02*
X015705Y015695D01*
X015705Y015995D01*
X015705Y016155D02*
X015405Y016155D01*
X015255Y016306D01*
X015405Y016456D01*
X015705Y016456D01*
X015630Y016616D02*
X015705Y016691D01*
X015705Y016841D01*
X015630Y016916D01*
X015555Y016916D01*
X015480Y016841D01*
X015480Y016691D01*
X015405Y016616D01*
X015330Y016616D01*
X015255Y016691D01*
X015255Y016841D01*
X015330Y016916D01*
X015255Y017076D02*
X015705Y017076D01*
X015705Y017376D01*
X015705Y017537D02*
X015255Y017537D01*
X015255Y017762D01*
X015330Y017837D01*
X015480Y017837D01*
X015555Y017762D01*
X015555Y017537D01*
X015555Y017687D02*
X015705Y017837D01*
X015255Y017376D02*
X015255Y017076D01*
X015480Y017076D02*
X015480Y017226D01*
X015480Y016456D02*
X015480Y016155D01*
X025875Y019475D02*
X025875Y019925D01*
X026100Y019925D01*
X026175Y019850D01*
X026175Y019700D01*
X026100Y019625D01*
X025875Y019625D01*
X026025Y019625D02*
X026175Y019475D01*
X026335Y019475D02*
X026636Y019475D01*
X026486Y019475D02*
X026486Y019925D01*
X026335Y019775D01*
X004778Y019570D02*
X004778Y019270D01*
X004703Y019195D01*
X004478Y019195D01*
X004478Y019645D01*
X004703Y019645D01*
X004778Y019570D01*
X004318Y019570D02*
X004318Y019420D01*
X004243Y019345D01*
X004018Y019345D01*
X004168Y019345D02*
X004318Y019195D01*
X004018Y019195D02*
X004018Y019645D01*
X004243Y019645D01*
X004318Y019570D01*
X003858Y019495D02*
X003858Y019195D01*
X003858Y019420D02*
X003557Y019420D01*
X003557Y019495D02*
X003557Y019195D01*
X003397Y019270D02*
X003322Y019195D01*
X003172Y019195D01*
X003097Y019270D01*
X003097Y019570D01*
X003172Y019645D01*
X003322Y019645D01*
X003397Y019570D01*
X003397Y019270D01*
X003557Y019495D02*
X003707Y019645D01*
X003858Y019495D01*
X002937Y019495D02*
X002862Y019420D01*
X002637Y019420D01*
X002862Y019420D02*
X002937Y019345D01*
X002937Y019270D01*
X002862Y019195D01*
X002637Y019195D01*
X002637Y019645D01*
X002862Y019645D01*
X002937Y019570D01*
X002937Y019495D01*
X002476Y019120D02*
X002176Y019120D01*
X001941Y019345D02*
X001716Y019345D01*
X001716Y019195D02*
X001716Y019645D01*
X001941Y019645D01*
X002016Y019570D01*
X002016Y019420D01*
X001941Y019345D01*
X001556Y019345D02*
X001556Y019270D01*
X001481Y019195D01*
X001330Y019195D01*
X001255Y019270D01*
X001330Y019420D02*
X001481Y019420D01*
X001556Y019345D01*
X001556Y019570D02*
X001481Y019645D01*
X001330Y019645D01*
X001255Y019570D01*
X001255Y019495D01*
X001330Y019420D01*
X001095Y019195D02*
X000795Y019195D01*
X000795Y019645D01*
X001095Y019645D01*
X000945Y019420D02*
X000795Y019420D01*
X000870Y016545D02*
X000795Y016470D01*
X000795Y016395D01*
X000870Y016320D01*
X001020Y016320D01*
X001095Y016245D01*
X001095Y016170D01*
X001020Y016095D01*
X000870Y016095D01*
X000795Y016170D01*
X000870Y016545D02*
X001020Y016545D01*
X001095Y016470D01*
X001255Y016545D02*
X001556Y016095D01*
X001556Y016545D01*
X001716Y016545D02*
X001941Y016545D01*
X002016Y016470D01*
X002016Y016320D01*
X001941Y016245D01*
X001716Y016245D01*
X001866Y016245D02*
X002016Y016095D01*
X002176Y016020D02*
X002476Y016020D01*
X002637Y016095D02*
X002637Y016545D01*
X002862Y016545D01*
X002937Y016470D01*
X002937Y016320D01*
X002862Y016245D01*
X002637Y016245D01*
X002787Y016245D02*
X002937Y016095D01*
X003097Y016095D02*
X003397Y016095D01*
X003557Y016095D02*
X003557Y016395D01*
X003707Y016545D01*
X003858Y016395D01*
X003858Y016095D01*
X004018Y016095D02*
X004018Y016545D01*
X004243Y016545D01*
X004318Y016470D01*
X004318Y016320D01*
X004243Y016245D01*
X004018Y016245D01*
X004168Y016245D02*
X004318Y016095D01*
X003858Y016320D02*
X003557Y016320D01*
X003397Y016545D02*
X003097Y016545D01*
X003097Y016095D01*
X003097Y016320D02*
X003247Y016320D01*
X001716Y016095D02*
X001716Y016545D01*
X001255Y016545D02*
X001255Y016095D01*
D18*
X011061Y005980D02*
X011214Y005980D01*
X011291Y005904D01*
X011291Y005827D01*
X011214Y005750D01*
X011061Y005750D01*
X010984Y005827D01*
X010984Y005904D01*
X011061Y005980D01*
X011061Y005750D02*
X010984Y005673D01*
X010984Y005597D01*
X011061Y005520D01*
X011214Y005520D01*
X011291Y005597D01*
X011291Y005673D01*
X011214Y005750D01*
X011444Y005673D02*
X011521Y005750D01*
X011674Y005750D01*
X011751Y005673D01*
X011751Y005597D01*
X011674Y005520D01*
X011521Y005520D01*
X011444Y005597D01*
X011444Y005673D01*
X011521Y005750D02*
X011444Y005827D01*
X011444Y005904D01*
X011521Y005980D01*
X011674Y005980D01*
X011751Y005904D01*
X011751Y005827D01*
X011674Y005750D01*
X011905Y005597D02*
X012212Y005904D01*
X012212Y005597D01*
X012135Y005520D01*
X011981Y005520D01*
X011905Y005597D01*
X011905Y005904D01*
X011981Y005980D01*
X012135Y005980D01*
X012212Y005904D01*
X012365Y005904D02*
X012442Y005980D01*
X012595Y005980D01*
X012672Y005904D01*
X012672Y005827D01*
X012595Y005750D01*
X012672Y005673D01*
X012672Y005597D01*
X012595Y005520D01*
X012442Y005520D01*
X012365Y005597D01*
X012519Y005750D02*
X012595Y005750D01*
X012825Y005673D02*
X013056Y005673D01*
X013132Y005750D01*
X013132Y005904D01*
X013056Y005980D01*
X012825Y005980D01*
X012825Y005520D01*
X013286Y005597D02*
X013286Y005750D01*
X013363Y005827D01*
X013516Y005827D01*
X013593Y005750D01*
X013593Y005597D01*
X013516Y005520D01*
X013363Y005520D01*
X013286Y005597D01*
X013746Y005520D02*
X013900Y005520D01*
X013823Y005520D02*
X013823Y005980D01*
X013746Y005980D01*
X014053Y005750D02*
X014053Y005597D01*
X014130Y005520D01*
X014283Y005520D01*
X014360Y005597D01*
X014360Y005750D01*
X014283Y005827D01*
X014130Y005827D01*
X014053Y005750D01*
X014514Y005520D02*
X014667Y005520D01*
X014590Y005520D02*
X014590Y005980D01*
X014514Y005980D01*
X014821Y005827D02*
X014821Y005597D01*
X014897Y005520D01*
X015127Y005520D01*
X015127Y005827D01*
X015281Y005904D02*
X015281Y005597D01*
X015358Y005520D01*
X015511Y005520D01*
X015588Y005597D01*
X015741Y005597D02*
X015818Y005673D01*
X016048Y005673D01*
X016048Y005750D02*
X016048Y005520D01*
X015818Y005520D01*
X015741Y005597D01*
X015818Y005827D02*
X015971Y005827D01*
X016048Y005750D01*
X016202Y005673D02*
X016355Y005827D01*
X016432Y005827D01*
X016585Y005827D02*
X016585Y005520D01*
X016585Y005673D02*
X016739Y005827D01*
X016816Y005827D01*
X016969Y005827D02*
X017046Y005827D01*
X017046Y005520D01*
X017122Y005520D02*
X016969Y005520D01*
X017276Y005597D02*
X017276Y005750D01*
X017353Y005827D01*
X017506Y005827D01*
X017583Y005750D01*
X017583Y005673D01*
X017276Y005673D01*
X017276Y005597D02*
X017353Y005520D01*
X017506Y005520D01*
X017736Y005520D02*
X017736Y005827D01*
X017736Y005673D02*
X017890Y005827D01*
X017967Y005827D01*
X017046Y005980D02*
X017046Y006057D01*
X016202Y005827D02*
X016202Y005520D01*
X015588Y005904D02*
X015511Y005980D01*
X015358Y005980D01*
X015281Y005904D01*
D19*
X023180Y014050D03*
X023130Y015250D03*
X025970Y015250D03*
X026020Y014050D03*
X025580Y017800D03*
X025630Y018850D03*
X028470Y018850D03*
X028420Y017800D03*
D20*
X030800Y017970D03*
X030800Y015130D03*
X030800Y013120D03*
X030800Y010280D03*
X026900Y008770D03*
X025750Y008770D03*
X025750Y005930D03*
X026900Y005930D03*
X018050Y009630D03*
X018050Y012470D03*
D21*
X010900Y003875D03*
M02*
