G75*
%MOIN*%
%OFA0B0*%
%FSLAX24Y24*%
%IPPOS*%
%LPD*%
%AMOC8*
5,1,8,0,0,1.08239X$1,22.5*
%
%ADD10OC8,0.0600*%
%ADD11C,0.0600*%
%ADD12R,0.0515X0.0515*%
%ADD13OC8,0.0520*%
%ADD14C,0.0520*%
%ADD15C,0.1000*%
%ADD16OC8,0.1000*%
%ADD17C,0.0320*%
%ADD18C,0.0120*%
%ADD19R,0.0436X0.0436*%
%ADD20C,0.0436*%
%ADD21C,0.0240*%
D10*
X025100Y010550D03*
X026100Y010550D03*
X026100Y011550D03*
X025100Y011550D03*
X025100Y012550D03*
X026100Y012550D03*
X037050Y012550D03*
X038050Y012550D03*
X038050Y011550D03*
X037050Y011550D03*
X037050Y010550D03*
X038050Y010550D03*
X038050Y009550D03*
X037050Y009550D03*
X037050Y008550D03*
X038050Y008550D03*
X038050Y007550D03*
X037050Y007550D03*
X037050Y006550D03*
X038050Y006550D03*
X038050Y005550D03*
X037050Y005550D03*
X037050Y004550D03*
X038050Y004550D03*
X038050Y003550D03*
X037050Y003550D03*
X037050Y013550D03*
X038050Y013550D03*
X038050Y014550D03*
X037050Y014550D03*
X037050Y015550D03*
X038050Y015550D03*
X038050Y016550D03*
X037050Y016550D03*
X037050Y017550D03*
X038050Y017550D03*
X038050Y018550D03*
X037050Y018550D03*
X037050Y019550D03*
X038050Y019550D03*
X038050Y020550D03*
X037050Y020550D03*
X008250Y019250D03*
X007250Y019250D03*
X006250Y019250D03*
X006250Y018250D03*
X007250Y018250D03*
X008250Y018250D03*
D11*
X009450Y020250D02*
X009450Y020850D01*
X010450Y020850D02*
X010450Y020250D01*
X011450Y020250D02*
X011450Y020850D01*
X012450Y020850D02*
X012450Y020250D01*
X013450Y020250D02*
X013450Y020850D01*
X014450Y020850D02*
X014450Y020250D01*
X015450Y020250D02*
X015450Y020850D01*
X016450Y020850D02*
X016450Y020250D01*
X018050Y020250D02*
X018050Y020850D01*
X019050Y020850D02*
X019050Y020250D01*
X020050Y020250D02*
X020050Y020850D01*
X021050Y020850D02*
X021050Y020250D01*
X022050Y020250D02*
X022050Y020850D01*
X023050Y020850D02*
X023050Y020250D01*
X024050Y020250D02*
X024050Y020850D01*
X025050Y020850D02*
X025050Y020250D01*
X027050Y020250D02*
X027050Y020850D01*
X028050Y020850D02*
X028050Y020250D01*
X029050Y020250D02*
X029050Y020850D01*
X030050Y020850D02*
X030050Y020250D01*
X031050Y020250D02*
X031050Y020850D01*
X032050Y020850D02*
X032050Y020250D01*
X033050Y020250D02*
X033050Y020850D01*
X034050Y020850D02*
X034050Y020250D01*
X032950Y014400D02*
X032350Y014400D01*
X032350Y013400D02*
X032950Y013400D01*
X032950Y012400D02*
X032350Y012400D01*
X032350Y011400D02*
X032950Y011400D01*
X029250Y010100D02*
X028650Y010100D01*
X028650Y009100D02*
X029250Y009100D01*
X029250Y008100D02*
X028650Y008100D01*
X028700Y006100D02*
X029300Y006100D01*
X029300Y005100D02*
X028700Y005100D01*
X028700Y004100D02*
X029300Y004100D01*
X032250Y004450D02*
X032850Y004450D01*
X034200Y004450D02*
X034800Y004450D01*
X034800Y005450D02*
X034200Y005450D01*
X032850Y005450D02*
X032250Y005450D01*
X032250Y006450D02*
X032850Y006450D01*
X034200Y006450D02*
X034800Y006450D01*
X035050Y001850D02*
X035050Y001250D01*
X036050Y001250D02*
X036050Y001850D01*
X034050Y001850D02*
X034050Y001250D01*
X033050Y001250D02*
X033050Y001850D01*
X032050Y001850D02*
X032050Y001250D01*
X031050Y001250D02*
X031050Y001850D01*
X030050Y001850D02*
X030050Y001250D01*
X029050Y001250D02*
X029050Y001850D01*
X027050Y001850D02*
X027050Y001250D01*
X026050Y001250D02*
X026050Y001850D01*
X025050Y001850D02*
X025050Y001250D01*
X024050Y001250D02*
X024050Y001850D01*
X023050Y001850D02*
X023050Y001250D01*
X022050Y001250D02*
X022050Y001850D01*
X021050Y001850D02*
X021050Y001250D01*
X020050Y001250D02*
X020050Y001850D01*
X018050Y001850D02*
X018050Y001250D01*
X017050Y001250D02*
X017050Y001850D01*
X016050Y001850D02*
X016050Y001250D01*
X015050Y001250D02*
X015050Y001850D01*
X014050Y001850D02*
X014050Y001250D01*
X013050Y001250D02*
X013050Y001850D01*
X010750Y007000D02*
X010150Y007000D01*
X010150Y008000D02*
X010750Y008000D01*
X010750Y009800D02*
X010150Y009800D01*
X010150Y010800D02*
X010750Y010800D01*
X004300Y015050D02*
X004300Y015650D01*
X003300Y015650D02*
X003300Y015050D01*
X002300Y015050D02*
X002300Y015650D01*
X001300Y015650D02*
X001300Y015050D01*
X001800Y012800D02*
X002400Y012800D01*
X002400Y011800D02*
X001800Y011800D01*
X001800Y010800D02*
X002400Y010800D01*
X002400Y009800D02*
X001800Y009800D01*
X001700Y006400D02*
X002300Y006400D01*
X002300Y005400D02*
X001700Y005400D01*
X001700Y004400D02*
X002300Y004400D01*
X002300Y003400D02*
X001700Y003400D01*
X016150Y016200D02*
X016750Y016200D01*
X016750Y017200D02*
X016150Y017200D01*
X004300Y018150D02*
X004300Y018750D01*
X003300Y018750D02*
X003300Y018150D01*
X002300Y018150D02*
X002300Y018750D01*
X001300Y018750D02*
X001300Y018150D01*
D12*
X012600Y014000D03*
X012600Y013000D03*
X012600Y012000D03*
X012600Y011000D03*
X012600Y010000D03*
X012600Y009000D03*
X012600Y008000D03*
X012600Y007000D03*
X016600Y007000D03*
X016600Y008000D03*
X016600Y009000D03*
X016600Y010000D03*
X016600Y011000D03*
X016600Y012000D03*
X016600Y013000D03*
X016600Y014000D03*
D13*
X018050Y013050D03*
X021200Y011350D03*
X023200Y011350D03*
X025750Y009350D03*
X026900Y009350D03*
X030800Y009700D03*
X030800Y013700D03*
X030800Y014550D03*
X026600Y014050D03*
X026550Y015250D03*
X022600Y014050D03*
X022550Y015250D03*
X025000Y017800D03*
X025050Y018850D03*
X029000Y017800D03*
X029050Y018850D03*
X030800Y018550D03*
X018050Y009050D03*
X025750Y005350D03*
X026900Y005350D03*
X016800Y004150D03*
X014800Y004150D03*
X006750Y011250D03*
X004750Y011250D03*
D14*
X004360Y009950D02*
X003840Y009950D01*
X003840Y008950D02*
X004360Y008950D01*
X004360Y007950D02*
X003840Y007950D01*
X003840Y006950D02*
X004360Y006950D01*
X004360Y005950D02*
X003840Y005950D01*
X003840Y004950D02*
X004360Y004950D01*
X004360Y003950D02*
X003840Y003950D01*
X006840Y003950D02*
X007360Y003950D01*
X007360Y004950D02*
X006840Y004950D01*
X006840Y005950D02*
X007360Y005950D01*
X007360Y006950D02*
X006840Y006950D01*
X006840Y007950D02*
X007360Y007950D01*
X007360Y008950D02*
X006840Y008950D01*
X006840Y009950D02*
X007360Y009950D01*
X020440Y009800D02*
X020960Y009800D01*
X020960Y008800D02*
X020440Y008800D01*
X020440Y007800D02*
X020960Y007800D01*
X020960Y006800D02*
X020440Y006800D01*
X020440Y005800D02*
X020960Y005800D01*
X020960Y004800D02*
X020440Y004800D01*
X020440Y003800D02*
X020960Y003800D01*
X023440Y003800D02*
X023960Y003800D01*
X023960Y004800D02*
X023440Y004800D01*
X023440Y005800D02*
X023960Y005800D01*
X023960Y006800D02*
X023440Y006800D01*
X023440Y007800D02*
X023960Y007800D01*
X023960Y008800D02*
X023440Y008800D01*
X023440Y009800D02*
X023960Y009800D01*
D15*
X010900Y002650D03*
D16*
X010900Y004650D03*
D17*
X012600Y006350D01*
X012600Y007000D01*
X012100Y006800D01*
X012100Y006150D01*
X012400Y006450D01*
X012050Y006450D01*
X011850Y006650D01*
X011850Y006950D01*
X012500Y006950D01*
X012600Y006850D01*
X012450Y006850D01*
X010850Y005250D01*
X010850Y004800D01*
X010900Y004750D01*
X010900Y005450D01*
X011700Y006250D01*
X011700Y006900D01*
X011800Y007000D01*
X012600Y007000D02*
X016600Y007000D01*
X016600Y006900D01*
X016800Y006900D01*
X016800Y003800D01*
X020700Y003800D01*
X022050Y003800D01*
X023050Y004800D01*
X023700Y004800D01*
X023750Y004750D01*
X024900Y004750D01*
X025550Y004100D01*
X029000Y004100D01*
X029950Y004100D01*
X030350Y004500D01*
X030400Y004500D01*
X030450Y005500D02*
X031750Y006450D01*
X032550Y006450D01*
X034500Y006450D01*
X034500Y005450D02*
X032550Y005450D01*
X023000Y004800D02*
X022700Y005100D01*
X022700Y005500D01*
X021000Y005500D01*
X020700Y005800D01*
X022700Y005500D02*
X022700Y009850D01*
X020750Y009850D01*
X020800Y009800D01*
X021400Y009800D01*
X021650Y009550D01*
X021650Y008150D01*
X021300Y007800D01*
X020700Y007800D01*
X020700Y009800D02*
X020750Y009850D01*
X022700Y009850D02*
X022700Y010850D01*
X023200Y011350D01*
X012600Y011000D02*
X011400Y009800D01*
X010450Y009800D01*
X010450Y010800D02*
X011400Y010800D01*
X012600Y012000D01*
X012600Y010000D02*
X010600Y008000D01*
X010450Y008000D01*
X010450Y007000D02*
X010600Y007000D01*
X012600Y009000D01*
X012600Y008050D02*
X012600Y008000D01*
X012100Y006150D02*
X011000Y005050D01*
X010900Y004650D02*
X009350Y004650D01*
X009350Y002450D01*
X004050Y002450D01*
X004100Y003950D01*
X003150Y003950D01*
X003100Y003900D01*
X003100Y008000D01*
X002100Y009800D01*
X002200Y010700D02*
X004400Y010700D01*
X004750Y011050D01*
X005850Y009950D01*
X007100Y009950D01*
X007100Y008950D02*
X007100Y007950D01*
X006150Y007950D01*
X006150Y004000D01*
X004100Y004000D01*
X004100Y003950D01*
X003100Y003900D02*
X002600Y003400D01*
X002000Y003400D01*
X000950Y001650D02*
X010850Y001650D01*
X012150Y003400D02*
X016000Y003400D01*
X016050Y003350D01*
X016050Y001550D01*
X017050Y001550D01*
X016800Y001550D01*
X016800Y004150D01*
X012150Y003400D02*
X010900Y004650D01*
X002200Y010700D02*
X002100Y010800D01*
X004750Y011050D02*
X004750Y011250D01*
X006250Y012650D02*
X006700Y012200D01*
X006250Y012650D02*
X004650Y012650D01*
D18*
X003300Y013800D02*
X003250Y013800D01*
X003300Y013800D02*
X010700Y013800D01*
X011100Y014200D01*
X009800Y016100D02*
X013750Y016100D01*
X013900Y016250D01*
X013900Y017800D01*
X013950Y017850D01*
X020850Y017850D01*
X021000Y017700D01*
X021000Y017050D01*
X021100Y016950D01*
X022100Y016950D01*
X022850Y017250D02*
X022850Y018000D01*
X022550Y018300D01*
X013700Y018300D01*
X013500Y018100D01*
X013500Y017250D01*
X013350Y017100D01*
X003600Y017100D01*
X003300Y017400D01*
X003300Y018450D01*
X004300Y018450D02*
X004300Y017900D01*
X004600Y017600D01*
X013000Y017600D01*
X013000Y018550D01*
X013300Y018850D01*
X025050Y018850D01*
X025000Y018250D01*
X025000Y017800D01*
X023050Y017050D02*
X022850Y017250D01*
X023050Y017050D02*
X029700Y017050D01*
X030050Y017400D01*
X030050Y020550D01*
X030800Y020300D02*
X030800Y018550D01*
X030800Y020300D02*
X031050Y020550D01*
X037050Y016550D02*
X018800Y016550D01*
X017500Y015350D01*
X005600Y015350D01*
X006250Y014900D02*
X005700Y014400D01*
X005700Y014350D01*
X006250Y014900D02*
X017600Y014900D01*
X018850Y016050D01*
X036350Y016050D01*
X037050Y015550D01*
X032650Y014400D02*
X032500Y014550D01*
X030800Y014550D01*
X032650Y012400D02*
X032500Y012250D01*
X033400Y008400D02*
X033400Y008250D01*
X033000Y007850D01*
X031450Y007850D01*
X030950Y007350D01*
X024250Y007350D01*
X023800Y007800D01*
X023700Y007800D01*
X024600Y006700D02*
X030950Y006700D01*
X032100Y007350D01*
X033650Y007350D01*
X024600Y006700D02*
X023700Y005800D01*
X018100Y007350D02*
X018050Y009050D01*
X018100Y007350D02*
X017750Y007000D01*
X016600Y007000D01*
X008500Y004400D02*
X008498Y004383D01*
X008494Y004366D01*
X008487Y004350D01*
X008477Y004336D01*
X008464Y004323D01*
X008450Y004313D01*
X008434Y004306D01*
X008417Y004302D01*
X008400Y004300D01*
X008350Y004300D01*
X008348Y004263D01*
X008342Y004227D01*
X008333Y004192D01*
X008320Y004158D01*
X008303Y004125D01*
X008283Y004094D01*
X008260Y004066D01*
X008234Y004040D01*
X008206Y004017D01*
X008175Y003997D01*
X008142Y003980D01*
X008108Y003967D01*
X008073Y003958D01*
X008037Y003952D01*
X008000Y003950D01*
X007100Y003950D01*
X004750Y006950D02*
X004100Y006950D01*
X004750Y006950D02*
X005500Y007750D01*
X016600Y013000D02*
X018050Y013050D01*
X017200Y016200D02*
X016450Y016200D01*
X017200Y016200D02*
X017550Y016550D01*
X017550Y016850D01*
X017800Y017100D01*
X020350Y017100D01*
X012400Y016600D02*
X002500Y016600D01*
X002300Y016400D01*
X002300Y015350D01*
D19*
X009800Y016100D03*
X012400Y016600D03*
X020350Y017100D03*
X022100Y016950D03*
D20*
X000950Y001650D03*
X008500Y004400D03*
X010850Y001650D03*
X005500Y007750D03*
X006700Y012200D03*
X004650Y012650D03*
X003300Y013800D03*
X005700Y014350D03*
X005600Y015350D03*
X011100Y014200D03*
X027850Y008450D03*
X030450Y005500D03*
X030400Y004500D03*
X033650Y007350D03*
X033400Y008400D03*
X029850Y012250D03*
D21*
X032500Y012250D01*
X028950Y009100D02*
X028450Y009100D01*
X028000Y008650D01*
X027900Y008650D01*
X027850Y008450D01*
X024150Y008450D01*
X023700Y008800D01*
M02*
