%
M48
M72
T01C0.0236
T02C0.0315
T03C0.0320
T04C0.0400
%
T01
X950Y1650
X8500Y4400
X10850Y1650
X5500Y7750
X6700Y12200
X4650Y12650
X3300Y13800
X5700Y14350
X5600Y15350
X9800Y16100
X12400Y16600
X11100Y14200
X20350Y17100
X22100Y16950
X29850Y12250
X27850Y8450
X30450Y5500
X30400Y4500
X33650Y7350
X33400Y8400
T02
X16600Y8000
X16600Y7000
X16600Y9000
X16600Y10000
X16600Y11000
X16600Y12000
X16600Y13000
X16600Y14000
X12600Y14000
X12600Y13000
X12600Y12000
X12600Y11000
X12600Y10000
X12600Y9000
X12600Y8000
X12600Y7000
T03
X14800Y4150
X16800Y4150
X20700Y3800
X20700Y4800
X20700Y5800
X20700Y6800
X20700Y7800
X20700Y8800
X20700Y9800
X21200Y11350
X23200Y11350
X23700Y9800
X23700Y8800
X23700Y7800
X23700Y6800
X23700Y5800
X23700Y4800
X23700Y3800
X25750Y5350
X26900Y5350
X26900Y9350
X25750Y9350
X30800Y9700
X30800Y13700
X30800Y14550
X26600Y14050
X26550Y15250
X22600Y14050
X22550Y15250
X25000Y17800
X25050Y18850
X29000Y17800
X29050Y18850
X30800Y18550
X18050Y13050
X18050Y9050
X7100Y8950
X7100Y9950
X6750Y11250
X4750Y11250
X4100Y9950
X4100Y8950
X4100Y7950
X4100Y6950
X4100Y5950
X4100Y4950
X4100Y3950
X7100Y3950
X7100Y4950
X7100Y5950
X7100Y6950
X7100Y7950
T04
X10450Y8000
X10450Y7000
X10900Y4650
X10900Y2650
X13050Y1550
X14050Y1550
X15050Y1550
X16050Y1550
X17050Y1550
X18050Y1550
X20050Y1550
X21050Y1550
X22050Y1550
X23050Y1550
X24050Y1550
X25050Y1550
X26050Y1550
X27050Y1550
X29050Y1550
X30050Y1550
X31050Y1550
X32050Y1550
X33050Y1550
X34050Y1550
X35050Y1550
X36050Y1550
X37050Y3550
X38050Y3550
X38050Y4550
X37050Y4550
X37050Y5550
X38050Y5550
X38050Y6550
X37050Y6550
X37050Y7550
X38050Y7550
X38050Y8550
X37050Y8550
X37050Y9550
X38050Y9550
X38050Y10550
X37050Y10550
X37050Y11550
X38050Y11550
X38050Y12550
X37050Y12550
X37050Y13550
X38050Y13550
X38050Y14550
X37050Y14550
X37050Y15550
X38050Y15550
X38050Y16550
X37050Y16550
X37050Y17550
X38050Y17550
X38050Y18550
X37050Y18550
X37050Y19550
X38050Y19550
X38050Y20550
X37050Y20550
X34050Y20550
X33050Y20550
X32050Y20550
X31050Y20550
X30050Y20550
X29050Y20550
X28050Y20550
X27050Y20550
X25050Y20550
X24050Y20550
X23050Y20550
X22050Y20550
X21050Y20550
X20050Y20550
X19050Y20550
X18050Y20550
X16450Y20550
X15450Y20550
X14450Y20550
X13450Y20550
X12450Y20550
X11450Y20550
X10450Y20550
X9450Y20550
X8250Y19250
X7250Y19250
X6250Y19250
X6250Y18250
X7250Y18250
X8250Y18250
X4300Y18450
X3300Y18450
X2300Y18450
X1300Y18450
X1300Y15350
X2300Y15350
X3300Y15350
X4300Y15350
X2100Y12800
X2100Y11800
X2100Y10800
X2100Y9800
X2000Y6400
X2000Y5400
X2000Y4400
X2000Y3400
X10450Y9800
X10450Y10800
X16450Y16200
X16450Y17200
X25100Y12550
X26100Y12550
X26100Y11550
X25100Y11550
X25100Y10550
X26100Y10550
X28950Y10100
X28950Y9100
X28950Y8100
X29000Y6100
X29000Y5100
X29000Y4100
X32550Y4450
X32550Y5450
X32550Y6450
X34500Y6450
X34500Y5450
X34500Y4450
X32650Y11400
X32650Y12400
X32650Y13400
X32650Y14400
M30
